<?xml version="1.0" standalone="no"?>
<!DOCTYPE svg PUBLIC "-//W3C//DTD SVG 1.1//EN" "http://www.w3.org/Graphics/SVG/1.1/DTD/svg11.dtd" >
<svg xmlns="http://www.w3.org/2000/svg">
<metadata>
This is a custom SVG webfont generated by Font Squirrel.
Copyright   : 1998 COMPUTORIUM
</metadata>
<defs>
<font id="TFFFranklinGothicDemi" horiz-adv-x="1106" >
<font-face units-per-em="2048" ascent="1638" descent="-410" />
<missing-glyph horiz-adv-x="615" />
<glyph unicode=" "  horiz-adv-x="615" />
<glyph unicode="&#x09;" horiz-adv-x="615" />
<glyph unicode="&#xa0;" horiz-adv-x="615" />
<glyph unicode="!" horiz-adv-x="656" d="M131 1405h396l-103 -985h-190zM168 0v318h322v-318h-322z" />
<glyph unicode="&#x22;" horiz-adv-x="942" d="M88 1139v266h283v-266l-86 -264h-111zM572 1139v266h282v-266l-86 -264h-110z" />
<glyph unicode="#" horiz-adv-x="1229" d="M51 340v221h232l49 244h-197v221h240l80 400h217l-80 -400h207l80 400h215l-80 -400h164v-221h-201l-49 -244h193v-221h-242l-68 -340h-217l68 340h-207l-68 -340h-217l68 340h-187zM500 561h209l53 244h-213z" />
<glyph unicode="$" horiz-adv-x="1229" d="M80 400l283 63q49 -182 270 -182q41 0 70 6q39 8 65 22q70 38 70 111q0 80 -103 115q-20 9 -55 16l-69 14l-129 31q-59 14 -121 43q-213 99 -213 330q0 83 27.5 153t80.5 123q110 110 271 132h4v163h168v-161q135 0 256 -86q112 -79 157 -218l-258 -86q-33 85 -85 120 q-61 40 -140 34l-38 -3l-26 -1q-116 -20 -116 -117q0 -48 41 -80q34 -27 86 -39l61 -14q90 -20 256 -65q27 -11 74 -35q182 -114 182 -318q0 -282 -280 -393q-93 -37 -170 -37v-195h-168v195q-376 39 -451 359z" />
<glyph unicode="%" horiz-adv-x="1434" d="M56 1045q0 114 36 192q44 96 121 137q58 31 131 31q72 0 133 -31q55 -28 91 -79q69 -99 69 -250q0 -114 -39 -197q-78 -166 -254 -166q-207 0 -272 230q-16 57 -16 133zM244 977l10 -76q24 -88 90 -88q44 0 68 31q18 23 29 70q5 21 6 55l2 68l-2 84q-1 46 -13 83 q-24 74 -90 74q-39 0 -65 -33q-19 -24 -29 -75q-6 -30 -6 -58v-135zM246 0l784 1405h158l-780 -1405h-162zM807 363q0 246 158 329q59 31 131 31q146 0 223 -110q70 -100 70 -250q0 -114 -39 -197q-78 -166 -254 -166q-210 0 -272 230q-17 63 -17 133zM996 297l4 -37l6 -41 q24 -88 90 -88q44 0 68.5 32t31.5 96q2 13 2 28l2 68l-2 84q-1 47 -12 83q-22 74 -90 74q-37 0 -66 -33q-20 -28 -29 -78q-5 -27 -5 -55v-133z" />
<glyph unicode="&#x26;" horiz-adv-x="1475" d="M25 424q0 206 215 336q61 37 131 59q-64 79 -90 127q-39 73 -39 150q0 126 82 209q71 72 194 102q78 19 156 19q129 0 229 -47q105 -50 154 -148q35 -70 35 -156q0 -223 -262 -329l196 -215q84 89 125 274l291 -39q-51 -227 -229 -442q36 -36 63 -49q41 -20 80 -17l86 6 v-245q-74 -19 -137 -19q-100 0 -170 29q-75 31 -137 102q-99 -77 -205 -114q-110 -38 -234 -38q-109 0 -188 21q-212 56 -298 228q-48 94 -48 196zM375 436q0 -89 68 -145q64 -53 155 -53q124 0 230 82l-287 315q-166 -55 -166 -199zM553 1106q0 -43 37 -90q16 -20 68 -72 l30 -30l24 10l32 14q26 15 47 35q47 44 47 102q0 66 -45.5 103t-110.5 37q-55 0 -90 -27q-39 -30 -39 -82z" />
<glyph unicode="'" horiz-adv-x="615" d="M166 1139v266h283v-266l-86 -264h-111z" />
<glyph unicode="(" horiz-adv-x="778" d="M78 522q0 240 76.5 468.5t222.5 414.5h225q-241 -394 -241 -889q0 -232 59 -448q63 -230 176 -418h-223q-295 401 -295 872z" />
<glyph unicode=")" horiz-adv-x="778" d="M88 1405h226q148 -191 223 -416q24 -72 42 -153q26 -116 32 -230q2 -37 2 -84q0 -234 -78 -458q-77 -220 -217 -414h-224q112 185 177 418q59 212 59 448q0 242 -59 461q-44 162 -109 294q-39 79 -74 134z" />
<glyph unicode="*" horiz-adv-x="1229" d="M201 1045l51 155l291 -104l-10 309h164l-11 -309l291 106l51 -157l-297 -86l191 -244l-133 -96l-174 256l-172 -258l-134 98l191 244z" />
<glyph unicode="+" horiz-adv-x="1229" d="M119 467v246h373v373h246v-373h372v-246h-372v-373h-246v373h-373z" />
<glyph unicode="," horiz-adv-x="615" d="M146 0v320h321v-289l-207 -359h-114l159 328h-159z" />
<glyph unicode="-" horiz-adv-x="492" d="M0 414v225h479v-225h-479z" />
<glyph unicode="." horiz-adv-x="615" d="M148 0v318h321v-318h-321z" />
<glyph unicode="/" horiz-adv-x="1229" d="M-31 -350l1004 1755h207l-1002 -1755h-209z" />
<glyph unicode="0" horiz-adv-x="1229" d="M64 705q0 338 157 536q147 185 385 185q163 0 283 -80q105 -70 176 -203q96 -180 96 -438q0 -156 -38 -291q-41 -147 -123 -252q-59 -75 -135 -119q-112 -64 -259 -64q-158 0 -276 83q-104 74 -174 209q-92 179 -92 434zM406 707l4 -154q1 -51 9 -96q3 -20 11 -55 q39 -181 179 -181q86 0 131 54q38 45 57 133q18 83 18 141q0 24 3 70.5t3 70.5q0 27 -3 82t-3 82q-11 116 -20 164q-16 80 -60 123q-51 49 -126 49q-94 0 -145 -85q-32 -51 -44 -133q-14 -87 -14 -128v-137z" />
<glyph unicode="1" horiz-adv-x="1229" d="M76 0v254h426v793l-391 -209v287q69 22 201 71q188 83 274 209h238v-1151h389v-254h-1137z" />
<glyph unicode="2" horiz-adv-x="1229" d="M80 0v273l105 77l417 320q36 28 105 100q96 101 96 213q0 81 -54.5 133t-135.5 52q-116 0 -177 -82q-51 -68 -65 -189l-291 66q75 343 342 432q92 31 207 31q103 0 184 -23q91 -26 164 -84q162 -129 162 -330q0 -124 -57 -229q-49 -91 -154 -178q-180 -149 -397 -275 l-45 -26h673l-24 -281h-1055z" />
<glyph unicode="3" horiz-adv-x="1229" d="M41 408l299 43q39 -219 252 -219q95 0 152 47q65 53 65 139q0 58 -26 102q-28 48 -80 68q-8 3 -51 10q-25 4 -60 4h-178v246h125l88 4q57 10 82 27q72 49 72 137q0 70 -57 122q-53 48 -138 48q-81 0 -139 -51q-54 -47 -72 -131l-291 47q70 274 340 350q89 25 176 25 q140 0 257 -47q137 -54 200 -160q45 -75 45 -176q0 -233 -242 -305v-5q283 -58 283 -331q0 -202 -166 -320q-59 -42 -132 -67q-83 -30 -144 -32l-101 -4l-100 4q-48 6 -94 19q-202 56 -300 226q-48 81 -65 180z" />
<glyph unicode="4" horiz-adv-x="1229" d="M45 322v239l568 844h374v-844h197v-239h-197v-322h-327v322h-615zM293 561h385v592z" />
<glyph unicode="5" horiz-adv-x="1229" d="M103 379l307 45q42 -184 235 -184q96 0 161 58t65 153q0 93 -65 157t-161 64q-56 0 -112 -29q-60 -31 -86 -80l-269 46l56 796h884l-34 -289h-615l-22 -311q62 65 139 94q71 27 164 27q187 0 318.5 -124.5t131.5 -330.5q0 -106 -34 -190q-39 -95 -107 -162 q-107 -105 -290 -132q-54 -8 -113 -8q-156 0 -277 54q-131 58 -203 168q-51 77 -73 178z" />
<glyph unicode="6" horiz-adv-x="1229" d="M70 697q0 297 125 489q81 125 198 184q111 56 259 56q137 0 247 -56t181 -170q39 -66 57 -149l-283 -76q-35 215 -202 215q-90 0 -146 -53q-47 -44 -76 -127q-24 -67 -30 -170q-2 -32 -2 -72v-47h4q39 80 130 123q80 39 177 39q140 0 250 -70q198 -127 198 -362 q0 -91 -39 -180q-85 -195 -272 -261q-87 -31 -199 -31q-330 0 -479 271q-43 79 -67 176q-31 128 -31 271zM412 439q0 -97 57 -160q59 -66 156 -66q99 0 156 68q53 63 53 164q0 89 -61 150t-148 61q-91 0 -152 -66t-61 -151z" />
<glyph unicode="7" horiz-adv-x="1229" d="M133 1114l25 291h983v-250q-158 -180 -280 -464q-49 -113 -85 -289q-16 -78 -24 -152q-10 -92 -8 -145l4 -105h-377q0 157 33.5 306.5t97.5 293.5q67 149 147 275q86 135 197 239h-713z" />
<glyph unicode="8" horiz-adv-x="1229" d="M58 379q0 124 69 201q60 68 182 112q-202 107 -202 316q0 198 164 319q134 99 350 99q139 0 260 -47q244 -95 244 -328q0 -103 -59 -178.5t-152 -114.5q260 -111 260 -342q0 -107 -45 -190q-82 -153 -269 -210q-96 -30 -163 -33l-103 -4q-37 -1 -92 4q-50 6 -86 13 q-100 20 -168 60q-190 113 -190 323zM355 391q0 -72 51 -122q43 -43 116 -58q38 -8 93 -8q43 0 77 6q38 7 78 25q86 40 86 119q0 48 -32 90q-39 41 -78 61q-61 31 -191 74l-24 8q-176 -52 -176 -195zM420 1063q0 -51 29 -86q26 -31 71 -57q93 -42 177 -70q141 44 141 176 q0 98 -68 146q-61 43 -159 43q-81 0 -132 -35q-59 -40 -59 -117z" />
<glyph unicode="9" horiz-adv-x="1229" d="M80 961q0 159 82.5 272.5t233.5 161.5q99 31 202 31q169 0 287 -74q107 -67 174 -193q92 -173 92 -434q0 -148 -28 -260q-34 -135 -97 -242q-144 -244 -450 -244q-179 0 -300.5 86.5t-162.5 254.5l289 55q20 -74 65 -109q49 -38 121 -38q61 0 109 28t77 82q14 27 27 72 q14 50 14 76q5 30 8 69q1 27 3 84l2 37q-117 -145 -316 -145q-142 0 -249 70t-152 186q-31 81 -31 174zM391 979q0 -90 59.5 -150.5t149.5 -60.5q86 0 148.5 62.5t62.5 148.5q0 90 -61 152.5t-150 62.5q-87 0 -148 -64t-61 -151z" />
<glyph unicode=":" horiz-adv-x="615" d="M154 0v318h321v-318h-321zM154 723v318h321v-318h-321z" />
<glyph unicode=";" horiz-adv-x="615" d="M146 0v320h321v-289l-207 -359h-114l159 328h-159zM146 723v318h321v-318h-321z" />
<glyph unicode="&#x3c;" horiz-adv-x="1229" d="M113 467v246l1001 373v-267l-643 -229l643 -229v-267z" />
<glyph unicode="=" horiz-adv-x="1229" d="M119 221v246h991v-246h-991zM119 713v246h991v-246h-991z" />
<glyph unicode="&#x3e;" horiz-adv-x="1229" d="M113 94v267l643 229l-643 229v267l1001 -373v-246z" />
<glyph unicode="?" d="M60 955q18 159 98 270q84 116 213 166q91 35 197 35q138 0 255 -60q128 -65 185 -182q39 -80 39 -178q0 -224 -228 -369q-38 -24 -69 -49q-28 -18 -45 -43q-29 -43 -29 -147h-264v38l2 105q1 50 8 78q15 60 70 112q12 12 42 38q6 4 62.5 46t83.5 80q33 47 33 111 q0 75 -46.5 120.5t-123.5 45.5q-145 0 -186 -166q-10 -41 -15 -92zM383 0v318h322v-318h-322z" />
<glyph unicode="@" horiz-adv-x="1639" d="M88 707q0 180 76 331q79 157 201 257q212 174 487 174q214 0 359 -82q136 -77 217 -193q112 -161 112 -340q0 -161 -70 -304q-76 -153 -208 -228q-80 -45 -170 -45q-46 0 -86.5 28.5t-52.5 85.5l-5 5q-44 -61 -112 -91q-62 -28 -125 -28q-71 0 -120 32.5t-79 86.5 q-59 106 -59 237q0 137 55 252q102 213 328 213q78 0 127.5 -29.5t75.5 -89.5h4l18 92h191l-93 -520q-12 -73 -12 -80q0 -32 39 -32q37 0 76 30q75 58 117 199q18 61 18 131q0 138 -36 227q-39 96 -97 148q-122 110 -268 135q-93 16 -144 16q-190 0 -348 -106 q-151 -101 -223 -271q-49 -116 -49 -241q0 -191 106 -348q103 -153 273 -226q113 -49 241 -49q130 0 244 51q111 50 190 129h187q-109 -151 -273 -237.5t-348 -86.5q-364 0 -590 279q-174 215 -174 488zM658 619q0 -76 26 -125q29 -55 90 -55q69 0 119 38q55 41 82 144 q19 72 19 176q0 73 -37.5 115.5t-96.5 42.5q-90 0 -146 -97.5t-56 -238.5z" />
<glyph unicode="A" horiz-adv-x="1311" d="M13 0l450 1405h381l440 -1405h-354l-86 289h-455l-88 -289h-288zM469 547h299l-149 494z" />
<glyph unicode="B" horiz-adv-x="1352" d="M133 0v1405h629q111 0 166 -8q198 -29 285 -184q43 -77 43 -176q0 -116 -71 -197q-68 -77 -183 -107v-4q136 -30 211 -120q82 -98 82 -230q0 -85 -50 -170q-76 -128 -204 -176q-43 -16 -93 -23q-72 -10 -186 -10h-629zM461 260l324 2q63 10 90 29q73 51 73 145 q0 91 -79 136q-46 26 -166 26h-242v-338zM461 848l313 2q51 6 84 31q60 46 60 127q0 71 -44.5 109t-115.5 38h-297v-307z" />
<glyph unicode="C" horiz-adv-x="1352" d="M64 703q0 356 198 555q68 68 156 110q123 58 277 58q195 0 325 -82q207 -131 244 -461l-344 -23q0 60 -12 113q-43 188 -224 188q-168 0 -225 -210q-15 -56 -23 -117q0 -24 -3 -73t-3 -73q0 -92 11 -170q23 -165 112 -229q57 -41 148 -41q107 0 172 82q56 70 71 182 l320 -20q-42 -363 -359 -477q-100 -36 -221 -36q-224 0 -381 128q-138 113 -200 321q-39 132 -39 275z" />
<glyph unicode="D" horiz-adv-x="1352" d="M123 0v1405h408q130 0 217 -12q147 -20 256 -97q28 -20 57 -49q217 -211 217 -540q0 -147 -45 -275q-49 -139 -137 -237q-74 -82 -170 -129q-91 -45 -213 -60q-52 -6 -127 -6h-463zM451 264h110q113 0 174 29q74 35 127 121q78 127 78 303q0 187 -100 317 q-71 93 -195 109q-31 4 -82 4h-112v-883z" />
<glyph unicode="E" horiz-adv-x="1188" d="M127 0v1405h1004v-272h-676v-285h532v-264h-532v-311h676v-273h-1004z" />
<glyph unicode="F" d="M125 0v1405h1000v-272h-672v-320h534v-264h-534v-549h-328z" />
<glyph unicode="G" horiz-adv-x="1352" d="M62 690q0 169 45 308q84 261 291 366q122 62 274 62q160 0 286 -70q133 -73 203 -211q47 -93 62 -201l-311 -43q-27 260 -248 260q-93 0 -152 -61q-55 -57 -82 -147q-24 -80 -30 -189q-2 -35 -2 -78q0 -200 71.5 -320t208.5 -120q111 0 172.5 66t61.5 178h-267v262h578 v-752h-150l-47 162q-155 -183 -383 -183q-319 0 -477 269q-104 177 -104 442z" />
<glyph unicode="H" horiz-adv-x="1352" d="M123 0v1405h328v-549h434v549h328v-1405h-328v580h-434v-580h-328z" />
<glyph unicode="I" horiz-adv-x="615" d="M133 0v1405h328v-1405h-328z" />
<glyph unicode="J" horiz-adv-x="819" d="M31 2v273q73 -17 160 -17q41 0 80 13q77 26 92 118l2 82v934h327v-975q0 -344 -237 -424q-80 -27 -203 -27z" />
<glyph unicode="K" horiz-adv-x="1311" d="M133 0v1405h320v-661l440 661h316l-338 -502l422 -903h-363l-278 609l-199 -285v-324h-320z" />
<glyph unicode="L" horiz-adv-x="1024" d="M119 0v1405h328v-1126h565v-279h-893z" />
<glyph unicode="M" horiz-adv-x="1802" d="M129 0v1405h514l246 -842l258 842h514v-1405h-328v1145h-8l-348 -1145h-225l-342 1145h-4v-1145h-277z" />
<glyph unicode="N" horiz-adv-x="1352" d="M127 0v1405h355l469 -825h4v825h254v-1405h-281l-539 944h-8v-944h-254z" />
<glyph unicode="O" horiz-adv-x="1352" d="M68 705q0 78 12 154q13 88 33 147q50 146 139 246q61 69 148 112q124 62 270 62q148 0 250 -49q224 -108 309 -400q39 -136 39 -272q0 -129 -33 -254q-79 -300 -299 -411q-120 -61 -266 -61q-297 0 -455 222q-147 207 -147 504zM412 705l4 -123q20 -141 53 -205 q66 -129 201 -129q80 0 133 41q89 68 111 264q10 88 10 150q0 53 -2 79q-1 22 -8 83q-5 33 -19 89q-11 41 -22 66q-62 137 -203 137q-154 0 -213 -159q-22 -58 -35 -146q-10 -68 -10 -127v-20z" />
<glyph unicode="P" horiz-adv-x="1270" d="M127 0v1405h529q131 0 196 -10q217 -34 319 -223q46 -87 46 -197q0 -108 -37 -194q-42 -98 -115 -162q-79 -69 -188 -86q-85 -13 -211 -13h-211v-520h-328zM455 776h240q99 11 144.5 61.5t45.5 125.5q0 94 -68 147q-33 26 -86 35q-23 4 -94 4h-182v-373z" />
<glyph unicode="Q" horiz-adv-x="1352" d="M68 705q0 78 12 154q13 88 33 147q50 146 139 246q61 69 148 112q124 62 270 62q148 0 250 -49q224 -108 309 -400q39 -136 39 -272q0 -329 -160 -525q-59 -72 -133 -114q0 -60 32 -84.5t93 -24.5l123 12v-250q-64 -14 -115 -14q-123 0 -190 33q-74 37 -107 116 q-21 50 -30 136l-111 -11q-297 0 -455 222q-147 207 -147 504zM412 705l4 -123q20 -141 53 -205q66 -129 201 -129q80 0 133 41q89 68 111 264q10 88 10 150q0 53 -2 79q-1 22 -8 83q-5 33 -19 89q-11 41 -22 66q-62 137 -203 137q-154 0 -213 -159q-22 -58 -35 -146 q-10 -68 -10 -127v-20z" />
<glyph unicode="R" horiz-adv-x="1352" d="M133 0v1405l732 -4q145 -17 221 -68q178 -119 178 -350q0 -121 -65 -220q-67 -102 -179 -142l260 -621h-364l-215 555h-240v-555h-328zM461 797h258q18 2 25 2q66 6 98 27q82 54 82 159q0 93 -80 144q-41 26 -102 26h-281v-358z" />
<glyph unicode="S" horiz-adv-x="1229" d="M6 369l303 70q31 -109 107 -156q69 -43 186 -43q48 0 74 6q41 10 72 27q73 41 73 118q0 47 -32 78q-28 27 -78 45q-37 14 -62 19l-73 16q-137 30 -205 53q-43 14 -95 43q-104 55 -153 146q-43 79 -43 190q0 94 39 183q82 180 277 236q93 26 188 26q100 0 174 -17 q88 -20 152 -57q144 -82 206 -256l-278 -92q-62 166 -242 166q-84 0 -131 -25q-63 -33 -63 -106q0 -95 137 -127l65 -15q177 -41 189 -44q110 -31 178 -75q184 -119 184 -331q0 -218 -174 -353q-86 -67 -214 -96q-89 -19 -193 -19q-156 0 -279 52q-236 100 -289 338z" />
<glyph unicode="T" d="M27 1127v278h1036v-278h-352v-1127h-328v1127h-356z" />
<glyph unicode="U" horiz-adv-x="1352" d="M107 555v850h356l4 -962q9 -73 27 -105q28 -52 92 -76q47 -18 119 -18q51 0 110 16q65 25 93 60q35 55 36 114l2 121v850h283l-2 -981q-2 -114 -45 -203q-60 -123 -213 -190q-119 -52 -287 -52q-100 0 -172 13q-100 18 -164 47q-45 20 -94 62q-105 89 -131 237 q-7 40 -10 90q-4 55 -4 127z" />
<glyph unicode="V" horiz-adv-x="1229" d="M15 1405h350l282 -1003l291 1003h277l-424 -1405h-355z" />
<glyph unicode="W" horiz-adv-x="1843" d="M6 1405h336l215 -946h4l228 946h303l235 -946h4l13 61l205 885h270l-352 -1405h-324l-229 930h-4l-222 -930h-319z" />
<glyph unicode="X" horiz-adv-x="1311" d="M21 0l434 748l-385 657h383l227 -428l240 428h307l-383 -653l434 -752h-381l-280 510l-283 -510h-313z" />
<glyph unicode="Y" horiz-adv-x="1229" d="M8 1405h381l271 -534l266 534h295l-440 -813v-592h-328v592z" />
<glyph unicode="Z" horiz-adv-x="1352" d="M142 0v240l708 899h-659v266h1063v-241l-711 -895h733v-269h-1134z" />
<glyph unicode="[" horiz-adv-x="778" d="M168 -350v1755h443v-131h-205v-1497h205v-127h-443z" />
<glyph unicode="\" horiz-adv-x="1229" d="M281 1405h207l463 -1405h-207z" />
<glyph unicode="]" horiz-adv-x="778" d="M168 -223h205v1497h-205v131h443v-1755h-443v127z" />
<glyph unicode="^" horiz-adv-x="1229" d="M142 535l342 870h254l348 -870h-232l-241 612l-240 -612h-231z" />
<glyph unicode="_" horiz-adv-x="1024" d="M0 -133h1024v-127h-1024v127z" />
<glyph unicode="`" horiz-adv-x="778" d="M133 1307l62 178l450 -219l-49 -121z" />
<glyph unicode="a" d="M62 275q0 221 233 309q77 29 208 46q145 19 204 19v25l-2 72q-6 39 -25 65q-43 49 -123 49q-81 0 -127 -36q-53 -42 -53 -115l-285 26q30 196 213 275q43 18 116 34.5t167 16.5q97 0 174 -20q216 -56 244 -222q8 -48 8 -178l4 -563q8 -53 16 -78h-299q-14 64 -14 162 q-69 -96 -139 -137q-79 -46 -193 -46q-107 0 -184 42q-84 46 -119 125q-24 54 -24 129zM381 307q0 -66 35 -100q38 -37 98 -37q95 0 152 86q35 54 37 97l4 104v41l-62 -10l-51 -6q-81 -19 -117 -37q-96 -49 -96 -138z" />
<glyph unicode="b" d="M115 0v1405h301v-495h8q75 151 254 151q120 0 205 -63q76 -56 121 -156q61 -135 61 -322q0 -83 -12 -151q-14 -79 -39 -139q-104 -251 -371 -251q-107 0 -176 44q-61 40 -121 137q-26 -27 -41 -76l-26 -84h-164zM420 436l4 -90q9 -51 31 -84q47 -71 127 -71 q121 0 156 149q5 24 10 54q2 14 2 28l2 98l-4 115q-2 69 -25 121q-16 38 -41 61q-40 37 -96 37q-136 0 -160 -180q-6 -46 -6 -88v-150z" />
<glyph unicode="c" d="M58 510q0 188 77 316q81 134 224 194q99 41 219 41q132 0 238 -59q113 -61 171 -174q45 -87 45 -166l-286 -17q0 77 -39 129q-44 58 -119 58q-86 0 -131 -60q-55 -73 -55 -237q0 -101 10 -154q17 -89 63 -123q40 -30 101 -30q77 0 121 53q39 47 49 127l286 -17 q-31 -292 -294 -383q-84 -29 -179 -29q-166 0 -287 81q-124 83 -180 237q-34 94 -34 213z" />
<glyph unicode="d" d="M62 508l4 107q1 36 18 108q48 209 170 287q79 51 189 51q92 0 149 -29q65 -33 111 -102v475h301v-1405h-287v162h-4q-93 -183 -277 -183q-117 0 -200 62q-74 55 -117 152q-25 57 -41 133q-16 80 -16 158v24zM379 500l2 -70l5 -36l5 -39q38 -158 154 -158q87 0 131 84 q15 29 23 76l4 77v144q0 63 -11 131q-12 76 -55 112q-34 29 -80 29q-127 0 -161 -155q-12 -53 -13 -89z" />
<glyph unicode="e" d="M51 506q0 176 74 311q134 244 432 244q114 0 213 -47q105 -50 168 -137q47 -65 72 -144q17 -53 23 -81t8 -76l4 -107h-668l-2 -51v-13q1 -85 51 -145q54 -65 150 -65q74 0 127 45q57 48 57 119l279 -21q-3 -29 -25 -76q-54 -118 -164 -196q-77 -55 -164 -74 q-58 -13 -121 -13q-169 0 -299 87q-125 84 -178 227q-37 99 -37 213zM375 647h369q0 35 -13 82.5t-28 69.5q-44 66 -133 66q-175 0 -195 -218z" />
<glyph unicode="f" horiz-adv-x="615" d="M21 781v233h121q0 100 4 143q12 124 101 196.5t267 72.5l140 -13v-231l-103 6h-13q-68 0 -86 -50q-6 -15 -7 -40l-2 -61v-23h184v-233h-184v-781h-301v781h-121z" />
<glyph unicode="g" horiz-adv-x="1147" d="M10 -125q0 73 56 127q46 45 125 62q-65 32 -97 73q-36 47 -36 113q0 69 38.5 118t94.5 77l75 37q-94 40 -135 96q-49 68 -49 157q0 191 199 275q121 51 278 51q138 0 277 -45q15 117 67 160t168 43l84 -8v-195q-31 10 -80 10q-47 0 -80 -21q-40 -25 -40 -69 q47 -52 61 -92q21 -45 21 -111q0 -97 -56 -168q-48 -62 -137 -100q-116 -51 -229 -51q-20 0 -41 2l-174 14q-52 -31 -52 -75q0 -61 60 -80q34 -11 108 -15q59 -3 115 -6l131 -6l103 -10q46 -5 100 -23q184 -63 184 -244q0 -189 -219 -283q-40 -17 -90 -28q-83 -18 -189 -24 q-54 -3 -104 -3q-140 0 -276 21q-58 9 -97 24q-65 25 -102 60q-62 58 -62 137zM279 -78q0 -75 127 -96q14 -2 61 -4q68 -5 113 -5q23 3 86 3q47 0 105 12q91 19 91 86q-5 51 -75 65l-35 7l-408 16q-65 -27 -65 -84zM389 740q0 -78 46.5 -118t119.5 -40q77 0 128.5 40.5 t51.5 119.5q0 73 -55 116q-48 37 -125 37q-73 0 -119.5 -41.5t-46.5 -113.5z" />
<glyph unicode="h" d="M107 0v1405h301v-508h4q28 76 109 122q75 42 161 42q77 0 145 -27.5t115 -85.5q44 -55 54 -137l4 -149v-662h-301v620q0 33 -4 64q-10 79 -43 109q-25 28 -74 28q-110 0 -144 -77q-15 -34 -22 -88q-4 -31 -4 -95v-561h-301z" />
<glyph unicode="i" horiz-adv-x="533" d="M113 0v1041h301v-1041h-301zM113 1135v291h301v-291h-301z" />
<glyph unicode="j" horiz-adv-x="533" d="M-86 -107l71 -6h11q52 0 84 41q27 35 29 93l2 69v951h301v-951q0 -39 -6 -234q-9 -43 -23 -71q-77 -152 -303 -152q-71 0 -166 19v241zM111 1135v291h301v-291h-301z" />
<glyph unicode="k" horiz-adv-x="1147" d="M115 0v1405h301v-842l98 138l289 340h297l-297 -355l338 -686h-338l-219 471l-168 -205v-266h-301z" />
<glyph unicode="l" horiz-adv-x="533" d="M113 0v1405h301v-1405h-301z" />
<glyph unicode="m" horiz-adv-x="1680" d="M101 0v1041h286v-160h4q77 180 289 180q99 0 170 -45q67 -43 115 -135q79 180 303 180q65 0 139 -27q117 -43 154 -147q14 -38 14 -76l2 -162v-649h-301v643q0 66 -6 90q-21 84 -129 84q-146 0 -150 -170l-2 -96v-551h-301v551q0 59 -2 133q-20 135 -133 135 q-145 0 -149 -178l-2 -90v-551h-301z" />
<glyph unicode="n" d="M103 0v1041h284v-176h4q96 196 299 196q76 0 142 -27q110 -45 147 -155q5 -14 13 -39q2 -9 4 -39q8 -68 8 -158v-643h-301v623q0 42 -4 65q-23 133 -134 133q-85 0 -126 -77q-35 -65 -35 -185v-559h-301z" />
<glyph unicode="o" d="M56 522q0 174 71 304q129 235 422 235q171 0 293.5 -86.5t175.5 -247.5q33 -101 33 -215q0 -169 -78 -299q-140 -234 -424 -234q-167 0 -288 86t-173 244q-32 96 -32 213zM379 553q0 -13 -1 -27q0 -71 13 -165l17 -68q44 -113 141 -113q67 0 109 43q35 36 51 101 q18 71 18 186q0 65 -6 131q-8 78 -28 131q-17 44 -52.5 67t-89.5 23q-68 0 -104 -38q-32 -34 -49 -97q-7 -24 -15 -75z" />
<glyph unicode="p" d="M119 -350v1391h283v-154h4q88 174 270 174q102 0 180 -45q72 -42 127 -135q47 -80 64 -176q14 -80 14 -187q0 -48 -1.5 -69.5t-8.5 -75.5q-12 -75 -35 -137q-52 -143 -162 -207q-85 -50 -190 -50q-83 0 -144 34q-65 36 -96 102h-4v-465h-301zM420 482l2 -109 q1 -61 27 -102q50 -78 135 -78q62 0 98 45q32 40 47 108q12 54 13 84l4 97l-4 108q-7 41 -29 117q-41 96 -127 96q-90 0 -135 -84q-20 -38 -27 -88l-4 -92v-102z" />
<glyph unicode="q" d="M60 522q0 368 225 492q85 47 197 47q107 0 173.5 -36.5t125.5 -129.5q52 73 77 146h164l-14 -170v-1221h-301v459q-42 -65 -98 -96q-62 -34 -140 -34q-128 0 -215 60q-132 91 -174 285q-20 93 -20 198zM379 522l4 -120q2 -67 25 -115q44 -94 135 -94q76 0 127 80 q25 40 35 88q8 41 8 94v156q0 104 -31 161q-45 82 -133 82q-121 0 -156 -149q-11 -49 -12 -82z" />
<glyph unicode="r" horiz-adv-x="697" d="M121 0v1041h281v-195h4l12 37l16 45q22 46 45 72q54 62 133 62q8 0 17 -1l51 -4v-301q-174 0 -227 -133q-31 -78 -31 -225v-398h-301z" />
<glyph unicode="s" horiz-adv-x="1024" d="M21 287l260 37q15 -74 86 -111q55 -29 120 -29q11 0 23 1l53 4q49 11 60 16q69 30 69 78q0 36 -22 57q-18 18 -53 25q-29 6 -41 6l-158 25q-87 14 -152 36q-92 31 -148 108t-56 173q0 138 82 223q74 76 200 107q74 18 162 18q307 0 410 -272l-224 -60q-19 72 -71 106 q-54 35 -115 35q-8 0 -16 -1l-51 -4q-34 -8 -50 -15q-55 -24 -55 -74q0 -38 35 -61q32 -21 90 -29q150 -21 256 -43l74 -24q170 -82 170 -285q0 -169 -140 -268q-66 -47 -153 -68q-77 -19 -170 -19q-132 0 -232 36q-194 70 -243 272z" />
<glyph unicode="t" horiz-adv-x="778" d="M10 803v240h183l26 305l263 20v-325h223v-240h-223l2 -491q6 -38 16 -52q25 -34 109 -34h18l94 4v-228l-20 -4q-28 -6 -90 -14q-42 -5 -69 -5h-9l-70 2l-27 4l-45 7q-77 12 -127 55q-56 48 -73 138q-11 57 -11 159v459h-170z" />
<glyph unicode="u" d="M111 385v656h301l2 -717q6 -36 14 -51q28 -52 99 -52q106 0 151 101q17 39 17 78v641h301v-1041h-279v178h-4q-40 -100 -115.5 -149.5t-181.5 -49.5q-88 0 -143 23q-139 58 -158 236q-4 37 -4 147z" />
<glyph unicode="v" horiz-adv-x="983" d="M17 1041h319l201 -660l203 660h227l-354 -1041h-240z" />
<glyph unicode="w" horiz-adv-x="1516" d="M10 1041h322l166 -637h4l158 637h276l150 -639h4l174 639h237l-313 -1041h-270l-162 668h-4l-162 -668h-258z" />
<glyph unicode="x" d="M25 0l344 559l-297 482h350l166 -283l166 283h260l-299 -482l350 -559h-350l-215 359l-213 -359h-262z" />
<glyph unicode="y" horiz-adv-x="983" d="M25 1041h325l199 -619l191 619h225l-318 -975q-29 -89 -88 -240q-54 -112 -147 -156q-70 -33 -178 -33l-148 13v235l152 -14q78 0 110 26q37 30 56 103z" />
<glyph unicode="z" horiz-adv-x="860" d="M8 0v223l459 609h-420v209h760v-193l-463 -625h484v-223h-820z" />
<glyph unicode="{" horiz-adv-x="778" d="M103 453v174h43q28 0 55 8q70 21 70 82v432q0 90 53 158q43 54 110 82q39 16 68 16h174v-182h-76q-81 0 -92 -64l-2 -36v-402q0 -72 -47 -121q-34 -36 -92 -51q-27 -10 -58 -10v-4l41 -4l48 -13q108 -40 108 -182l2 -439l10 -32q21 -33 82 -33h76v-182h-174 q-52 0 -106 34q-125 79 -125 224v430q0 61 -43 90q-30 20 -82 25h-43z" />
<glyph unicode="|" horiz-adv-x="615" d="M185 0v1405h245v-1405h-245z" />
<glyph unicode="}" horiz-adv-x="778" d="M103 -168h75q52 0 71.5 17.5t21.5 47.5l2 35v404q0 90 47 141q33 36 92 50q34 8 57 8v4l-41 6l-49 14q-106 49 -106 162l-2 438l-6 18l-5 13q-20 33 -82 33h-75v182h174q50 0 106 -35q125 -78 125 -221v-432q0 -49 43 -72q33 -18 82 -18h43v-174h-31l-41 -4 q-96 -22 -96 -111v-430q0 -178 -164 -244q-35 -14 -67 -14h-174v182z" />
<glyph unicode="~" horiz-adv-x="1229" d="M90 471q0 77 21 144q24 77 68 132.5t137 67.5q120 0 194 -43l232 -135q70 -41 120 -41q12 0 27 4q39 18 51 78q4 20 4 74h193q0 -163 -90 -275q-46 -57 -135 -69q-114 0 -195 43l-258 137q-58 31 -96 31q-21 0 -35 -8q-29 -21 -37 -78l-2 -62h-199z" />
<glyph unicode="&#xa1;" horiz-adv-x="656" d="M133 -344l101 971h190l98 -971h-389zM168 744v317h322v-317h-322z" />
<glyph unicode="&#xa2;" horiz-adv-x="1229" d="M146 719q0 324 227 451q75 42 176 53v219h166v-219q321 -43 369 -373l-273 -16q-15 89 -47 129q-43 53 -123 53q-122 0 -166 -133q-22 -67 -22 -180q0 -61 8 -97q13 -59 29 -88q49 -90 151 -90q81 0 125.5 51.5t44.5 126.5l266 -20q-21 -154 -115 -252t-247 -123v-267 h-166v267q-292 45 -377 326q-26 86 -26 182z" />
<glyph unicode="&#xa3;" horiz-adv-x="1229" d="M25 0v264h106q26 0 66 9q137 54 137 227l-14 141h-195v217h162q-14 86 -14 144q0 311 266 397q84 27 184 27q141 0 246 -66q116 -73 156 -201l-263 -104q-17 64 -47 94q-40 41 -96 41q-53 0 -92 -41q-37 -50 -37 -127q0 -47 5 -86q2 -13 11 -61l3 -17h231v-217h-207 q0 -136 -31 -211q-39 -94 -129 -166h185q111 0 171 44.5t93 150.5l285 -86q-30 -101 -64 -156q-42 -68 -117 -125q-81 -61 -187 -80q-24 -5 -73 -10l-96 -2h-645z" />
<glyph unicode="&#xa4;" horiz-adv-x="1229" d="M99 957l141 141l160 -160q81 62 221 62q130 0 209 -58l161 160l140 -139l-164 -162l9 -18l10 -17l10 -18q18 -33 28 -72q10 -26 10 -65q0 -48 -8 -84q-5 -21 -20 -64q-29 -64 -45 -90l157 -158l-139 -133l-158 158l-61 -33q-33 -18 -78 -27l-73 -4q-40 -2 -107 19 q-57 18 -96 49l-164 -164l-137 137l159 162q-73 90 -73 234q0 117 69 186zM396 578q9 -92 69 -148.5t148 -56.5q49 0 102 20q46 26 68 54q47 59 47 131q0 95 -56 157q-66 74 -161 74q-96 0 -156.5 -67t-60.5 -164z" />
<glyph unicode="&#xa5;" horiz-adv-x="1229" d="M29 1405h354l269 -534l266 534h268l-274 -506h229v-182h-330l-67 -125v-16h397v-183h-397v-393h-273v393h-397v183h397v16l-67 125h-330v182h229z" />
<glyph unicode="&#xa6;" horiz-adv-x="615" d="M185 0v563h245v-563h-245zM185 842v563h245v-563h-245z" />
<glyph unicode="&#xa7;" horiz-adv-x="1229" d="M119 -62l258 49q58 -82 113 -116q64 -39 157 -39q72 0 129 26q72 33 72 99q0 40 -31 74t-71 57q-62 35 -166 72l-88 31l-92 37q-43 17 -86 45q-154 100 -154 264q0 98 33 174q32 73 106 141q-102 85 -102 228q0 78 37.5 148t101.5 116q60 43 148 65q68 17 161 17 q154 0 263 -60q118 -65 178 -198l-219 -62q-28 72 -93.5 103.5t-138.5 25.5l-53 -4q-115 -30 -115 -100q0 -57 62 -94q20 -12 112 -48l176 -69q54 -21 105 -51q166 -97 166 -273q0 -87 -33 -160q-28 -62 -98 -131q155 -91 155 -278q0 -148 -88 -250q-102 -118 -301 -144 q-46 -6 -98 -6q-131 0 -236 41q-211 82 -270 270zM416 635q0 -47 27 -80q33 -33 71 -49l244 -102q76 47 76 114q0 79 -92 125l-54 27l-65 25l-125 51q-40 -24 -57 -45q-25 -32 -25 -66z" />
<glyph unicode="&#xa8;" horiz-adv-x="860" d="M148 1368q0 52 33.5 85.5t82.5 33.5q50 0 82.5 -35.5t32.5 -83.5q0 -50 -34.5 -84t-84.5 -34q-44 0 -82 36q-30 36 -30 82zM479 1368q11 119 117 119q49 0 82 -35t33 -84t-34.5 -83.5t-84.5 -34.5q-44 0 -82 36q-31 39 -31 82z" />
<glyph unicode="&#xa9;" horiz-adv-x="1516" d="M35 705q0 160 69.5 307.5t192.5 249.5q74 61 178 106q135 58 283 58q334 0 557 -262q166 -195 166 -459q0 -166 -71 -312q-74 -152 -191 -249q-77 -63 -180 -107q-137 -58 -281 -58q-167 0 -315 72q-144 70 -244 191q-62 75 -107 180q-57 133 -57 283zM226 705 q0 -179 86 -318q145 -235 446 -235q172 0 304 89.5t190 240.5q38 99 38 223q0 178 -88 315q-151 236 -444 236q-170 0 -301 -86q-135 -88 -193 -244q-38 -102 -38 -221zM387 709q0 128 58 230q62 110 174 157q74 31 166 31q130 0 224 -72q96 -75 118 -201h-164 q-30 131 -180 131q-106 0 -163 -86q-50 -75 -50 -186q0 -113 57 -193q63 -88 162 -88q67 0 116 37q58 44 58 103h164q-19 -128 -113 -203.5t-225 -75.5q-136 0 -234 70q-168 120 -168 346z" />
<glyph unicode="&#xaa;" horiz-adv-x="738" d="M53 502v178h633v-178h-633zM53 953q0 66 44 116q39 45 108 70q15 6 64 16q24 6 69 11l75 9q34 3 60 3v14l-2 43q-6 27 -16 41q-23 29 -80 29q-49 0 -80.5 -23t-36.5 -67l-184 14q12 80 74 129q49 39 141 57q57 11 107 11q137 0 215 -58q48 -36 57 -88l4 -106v-291 q0 -42 14 -94h-194q-10 36 -10 96q-87 -109 -216 -109q-94 0 -151 45q-62 49 -62 132zM262 973q0 -82 86 -82q63 0 99 51q18 25 24 58l2 63v25q-36 -8 -63 -8q-36 -6 -70 -19q-78 -30 -78 -88z" />
<glyph unicode="&#xab;" horiz-adv-x="819" d="M129 590l176 301h105l-105 -301l105 -295h-105zM410 590l176 301h104l-104 -301l104 -295h-104z" />
<glyph unicode="&#xac;" horiz-adv-x="1229" d="M92 713v246h1043v-606h-246v360h-797z" />
<glyph unicode="&#xad;" horiz-adv-x="1229" d="M119 467v246h991v-246h-991z" />
<glyph unicode="&#x2212;" horiz-adv-x="1229" d="M119 467v246h991v-246h-991z" />
<glyph unicode="&#xae;" horiz-adv-x="1516" d="M35 705q0 215 121 397.5t319 265.5q137 58 283 58q334 0 557 -262q166 -195 166 -459q0 -339 -264 -559q-83 -69 -178 -109q-138 -58 -281 -58q-341 0 -559 265q-64 78 -107 178q-57 133 -57 283zM226 705q0 -179 86 -318q145 -235 446 -235q172 0 304 89.5t190 240.5 q38 99 38 223q0 178 -88 315q-151 236 -444 236q-170 0 -301 -86q-135 -88 -193 -244q-38 -102 -38 -221zM461 309v783h377q159 0 227 -51q76 -57 76 -189q0 -151 -123 -198q-39 -15 -90 -15l188 -330h-188l-174 330h-129v-330h-164zM625 758h215q75 0 107 20q42 25 42 95 q0 98 -127 98h-237v-213z" />
<glyph unicode="&#xaf;" horiz-adv-x="942" d="M148 1340v147h645v-147h-645z" />
<glyph unicode="&#x2c9;" horiz-adv-x="942" d="M148 1340v147h645v-147h-645z" />
<glyph unicode="&#xb0;" horiz-adv-x="819" d="M103 1118q0 129 89 218.5t218 89.5q126 0 216.5 -89.5t90.5 -218.5q0 -126 -89.5 -216.5t-217.5 -90.5t-217.5 89.5t-89.5 217.5zM258 1118q0 -63 43.5 -107t106.5 -44t106 45t43 106t-44 104.5t-105 43.5q-65 0 -107.5 -43.5t-42.5 -104.5z" />
<glyph unicode="&#xb1;" horiz-adv-x="1229" d="M119 0v246h991v-246h-991zM119 713v246h373v372h246v-372h372v-246h-372v-373h-246v373h-373z" />
<glyph unicode="&#xb2;" horiz-adv-x="738" d="M19 572v163l67 48l273 192q111 78 129 186q0 51 -36 81t-87 30q-77 0 -114 -47.5t-44 -114.5l-188 39q62 279 356 279q134 0 227 -64q105 -72 105 -198q0 -77 -37 -138q-34 -56 -100 -106q-114 -86 -258 -166l-29 -10v-4h436l-14 -170h-686z" />
<glyph unicode="&#xb3;" horiz-adv-x="738" d="M10 817l193 25q32 -131 164 -131q141 0 141 113q0 71 -67 102l-18 3l-15 3l-156 2v148h82q65 0 109 18q47 33 47 82q0 46 -36.5 74t-90.5 28t-90 -30t-45 -80l-191 28q30 111 126 171q89 55 210 55q113 0 206 -46q120 -60 120 -184q0 -70 -41.5 -116.5t-114.5 -67.5v-4 q182 -39 182 -197q0 -34 -9 -65q-26 -83 -97 -127q-101 -62 -246 -62q-147 0 -240 66q-102 72 -123 192z" />
<glyph unicode="&#xb4;" horiz-adv-x="819" d="M152 1264l446 221l70 -176l-465 -168z" />
<glyph unicode="&#xb5;" d="M97 -350v1391h301l2 -717q2 -16 14 -51q29 -52 96 -52q110 0 152 101q16 38 16 78v641h301v-1041h-278v178h-4q-81 -199 -299 -199v-329h-301z" />
<glyph unicode="&#x3bc;" d="M97 -350v1391h301l2 -717q2 -16 14 -51q29 -52 96 -52q110 0 152 101q16 38 16 78v641h301v-1041h-278v178h-4q-81 -199 -299 -199v-329h-301z" />
<glyph unicode="&#xb6;" d="M82 973l2 43q3 66 11 96q12 44 30 82q35 72 111 113q149 80 332 80q72 -8 196 -8q60 0 118 3l124 5v-99h-103v-1659h-170v1659h-96v-1659h-170v1037q-100 0 -223 45q-87 45 -133 143q-32 54 -29 119z" />
<glyph unicode="&#xb7;" horiz-adv-x="615" d="M146 432v318h321v-318h-321z" />
<glyph unicode="&#x2219;" horiz-adv-x="615" d="M146 432v318h321v-318h-321z" />
<glyph unicode="&#xb8;" horiz-adv-x="697" d="M142 -328l32 82q87 -48 152 -47q32 1 49 14q23 18 23 43q0 39 -41 60q-36 19 -74 16l-60 -4l60 164h102l-30 -82l32 4q69 0 117 -41q53 -45 53 -109q0 -76 -62 -122q-56 -43 -134 -43q-115 0 -219 65z" />
<glyph unicode="&#xb9;" horiz-adv-x="738" d="M0 572v155h277v482l-254 -127v176q97 26 172 61q83 39 137 109h154v-701h254v-155h-740z" />
<glyph unicode="&#xba;" horiz-adv-x="738" d="M45 1102q0 101 46 180q49 85 139 119q66 25 137 25q74 0 139 -27q61 -25 103 -70q83 -89 83 -233q0 -140 -92.5 -230t-232.5 -90q-80 0 -142 27q-57 26 -96 68q-84 91 -84 231zM51 502v178h635v-178h-635zM256 1121l2 -66l11 -74q26 -84 98 -84q56 0 86 43q20 28 29 92 l2 62l-2 39q0 15 -3 39q-10 135 -110 135q-51 0 -82 -41q-27 -36 -29 -86z" />
<glyph unicode="&#xbb;" horiz-adv-x="819" d="M129 295l105 295l-105 301h105l176 -301l-176 -295h-105zM410 295l104 295l-104 301h104l176 -301l-176 -295h-104z" />
<glyph unicode="&#xbc;" horiz-adv-x="1843" d="M21 549v156h276v481l-254 -127v176q224 61 310 170h153v-700h254v-156h-739zM565 0l779 1405h198l-780 -1405h-197zM1084 193v143l368 508h244v-508h127v-143h-127v-193h-213v193h-399zM1233 336h250v354z" />
<glyph unicode="&#xbd;" horiz-adv-x="1843" d="M21 549v156h276v481l-254 -127v176q224 61 310 170h153v-700h254v-156h-739zM518 0l779 1405h198l-780 -1405h-197zM1123 0v164l67 47l273 193q111 79 129 186q0 52 -35 80q-39 31 -88 31q-76 0 -115 -49q-36 -45 -43 -113l-188 39q62 278 356 278q136 0 227 -63 q47 -33 78 -88q27 -51 27 -111q0 -77 -36 -135.5t-102 -108.5q-120 -91 -258 -165l-28 -11v-4h436l-14 -170h-686z" />
<glyph unicode="&#xbe;" horiz-adv-x="1843" d="M21 795l192 24q15 -64 53 -96q41 -35 111 -35q141 0 141 113q0 71 -67 102l-15 3l-18 4l-156 2v147h82q65 0 109 18q47 33 47 82q0 47 -37 74q-40 29 -90 29q-54 0 -90 -31t-45 -80l-191 29q30 111 127 171q88 54 209 54q213 0 297 -125q29 -43 29 -104q0 -71 -42 -118 t-114 -67v-4q182 -38 182 -196q0 -127 -106 -193q-99 -61 -246 -61t-239 65q-105 74 -123 193zM504 0l778 1405h199l-780 -1405h-197zM1084 193v143l368 508h244v-508h127v-143h-127v-193h-213v193h-399zM1233 336h250v354z" />
<glyph unicode="&#xbf;" d="M60 49q0 227 229 369l37 23l27 18q79 53 79 176h265l-2 -117q-1 -40 -13 -82q-19 -66 -69 -116q-33 -33 -101 -80q-116 -80 -116 -191q0 -78 45.5 -123t123.5 -45q146 0 187 166q9 37 14 93l281 -39q-20 -162 -99 -273q-81 -115 -213 -166q-90 -35 -196 -35 q-149 0 -262 61q-217 118 -217 361zM404 744v317h321v-317h-321z" />
<glyph unicode="&#xc0;" horiz-adv-x="2844" d="M81 -24l1017 343l13 -10l-979 -333h-51zM81 -24h51l1245 -415v-17zM81 1124l1296 439v-18l-1245 -421h-51zM81 1124h51l1245 -417v-18zM117 -13h2512v-17h-2512v17zM117 1110v23h2512v-23h-2512zM220 -24l884 334l13 -12l-844 -322h-53zM220 -24h53l1104 -415v-17z M220 1124l1157 439v-18l-1104 -421h-53zM220 1124h53l1104 -417v-18zM481 -24l646 316l14 -9l-618 -307h-42zM481 -24h42l854 -415v-17zM481 1124l896 439v-18l-854 -421h-42zM481 1124h42l854 -417v-18zM618 -189h1519l-32 -17h-1459zM618 956h1519l-32 -18h-1459zM772 -24 l393 285l10 -14l-372 -271h-31zM772 -24h31l574 -415v-17zM772 1124l605 439v-18l-574 -421h-31zM772 1124h31l574 -417v-18zM961 550q0 199 110.5 310t309.5 111q198 0 306.5 -111t108.5 -310q0 -195 -110 -305t-305 -110q-196 0 -308 109.5t-112 305.5zM1031 287l35 11h51 l20 -11h-106zM1031 1432l35 11h620l40 -11h-695zM1039 506q0 -32 25 -32q27 0 27 29q0 30 -25 30q-5 0 -11 -2q-16 -13 -16 -25zM1044 -336h669l-32 -12h-620zM1044 811h478l8 -12h-469zM1057 447l12 -35l38 -69l20 -24l28 -25l37 -26l31 -16l28 -10l-19 19l-22 15l-32 38 l-22 24l-39 78l-6 24l-11 27l-11 -12l-10 -8h-22zM1084 -24l293 438v-17l-273 -421h-20zM1084 -24h20l273 -415v-17zM1084 1124h20l273 -417v-18zM1084 1124l293 439v-18l-273 -421h-20zM1098 319l112 36zM1111 309zM1117 298zM1137 287zM1141 283zM1175 247zM1210 355 l167 59v-17l-154 -54zM1212 355l165 59v-17l-154 -59zM1212 355zM1223 339l154 75v-17l-145 -69zM1223 339zM1239 313l138 101v-17l-129 -94zM1239 313zM1251 298h435l40 -11h-467zM1251 298zM1371 405h16v-850l-16 4v846zM1371 703v849h16v-849h-16zM1377 397v17l1296 -438 h-50zM1377 397v17l1159 -438h-54zM1377 397v17l901 -438h-45zM1377 397v17l611 -438h-34zM1377 397v17l295 -438h-22zM1377 -439l1246 415h50l-1296 -432v17zM1377 -439l1105 415h54l-1159 -432v17zM1377 -439l577 415h34l-611 -432v17zM1377 -439l856 415h45l-901 -432v17z M1377 -439l273 415h22l-295 -432v17zM1377 689v18l174 58l10 -15zM1377 689v18l170 64l11 -12zM1377 689v18l145 104l8 -12zM1377 689v18l158 77l12 -13zM1377 689v18l273 417h22zM1377 1545v18l1296 -439h-50zM1377 1545v18l1159 -439h-54zM1377 1545v18l901 -439h-45z M1377 1545v18l611 -439h-34zM1377 1545v18l295 -439h-22zM1518 887l25 -27l18 -18l13 -16l8 -17l15 -25l8 -22l13 -37l15 14l23 18l17 2l-50 64l-26 21l-23 16l-39 16zM1530 799zM1530 799zM1547 771zM1558 759zM1561 750zM1603 870zM1603 870l351 254h34l-373 -268z M1633 832zM1633 832l600 292h45l-628 -307zM1653 811zM1653 811l829 313h54l-870 -325zM1653 811zM1653 811h60l-32 -12h-15zM1662 801zM1662 801l961 323h50l-1001 -335zM2103 157zM2103 1302z" />
<glyph unicode="&#xc1;" horiz-adv-x="6042" d="M93 -414h1610v390h-1205v773h-405v-1163zM93 1136v387h1610v-387h-1610zM2106 -414h402v776h806v-776h400v1163h-1608v-1163zM2106 1136v387h1608v-387h-1608zM4118 -24v-390h1609v1163h-1609v-387h1206v-386h-1206zM4118 1136v387h1609v-387h-1609z" />
<glyph unicode="&#xc2;" horiz-adv-x="2245" d="M102 1560l1036 -1982l1018 1982h-76v-47h10l-955 -1841l-962 1841h1907v47h-1978zM392 1368l117 -229h1242l117 229h-1476zM551 1059l120 -230h922l117 230h-1159zM575 1254q0 55 50 55h16v-26h-12q-26 0 -26 -29q0 -27 26 -27h12v-24h-16q-50 0 -50 51zM663 1259 q0 50 54 50q48 0 48 -50q0 -56 -48 -56q-54 0 -54 56zM689 1254q0 -27 28 -27q24 0 24 27q0 29 -24 29q-28 0 -28 -29zM711 756l121 -234h600l119 234h-840zM761 893l23 102h22l25 -102h-22l-3 18h-22l-1 -18h-22zM791 928h11q-5 23 -7 45zM791 1203l6 81q2 25 19 25 q18 0 20 -23l4 -49l10 54q3 18 20 18q18 0 18 -23l10 -83h-24l-7 83l-13 -68q-3 -15 -14 -15q-8 0 -8 11l-16 70l-6 -81h-19zM864 893v102h16q46 0 46 -51q0 -38 -28 -48q-5 -3 -19 -3h-15zM867 434h8q74 -140 171 -309q24 -30 42 -30q24 0 29 38q15 111 -5 111h-4 q-3 -1 -7 -1l-27 -18l61 189v-507zM867 434v11h535v-11h-535zM882 911q24 0 24 33t-24 33v-66zM885 591v23q12 -8 19 -8q11 0 11 14l-14 14q-16 16 -16 27q0 27 28 27q7 0 16 -4v-16q-7 2 -10 4q-13 0 -13 -11l14 -18q14 -18 14 -23q0 -36 -28 -36q-9 0 -21 7zM920 1203v65 q0 41 36 41t36 -38q0 -34 -36 -34h-4v24q16 0 16 10q0 13 -13 13q-11 0 -11 -13v-68h-24zM944 688h23l5 -18q4 -5 6 -18q3 6 4 18l8 18h20l-24 -56v-46h-18v46zM955 995h23l8 -44q4 -22 4 -32q0 10 6 32l12 44h20l-25 -102h-21zM1017 1237v72h23v-72q0 -14 11 -14 q18 0 18 14v72h21v-72q0 -34 -39 -34q-34 0 -34 34zM1022 661q0 27 24 27q12 0 23 -4v-16q-11 2 -18 4q-7 0 -7 -11l13 -18q13 -18 13 -23q0 -36 -30 -36q-7 0 -16 7v23q9 -8 14 -8q9 0 9 14l-11 14q-14 18 -14 27zM1051 893l23 102h18l28 -102h-25l-3 18h-18l-2 -18h-21z M1076 928h14l-3 45zM1088 670v18h50v-18h-16v-84h-21v84h-13zM1113 1283v26h63v-26h-16v-80h-30v80h-17zM1135 -93l267 527h-9q-99 -192 -169 -309q-18 -30 -44 -30q-24 0 -28 38q-11 111 10 111h2q16 -9 30 -19l-59 189v-507zM1152 893v102h24l18 -53q0 -7 6 -23 q-2 23 -2 36v40h20v-102h-20l-22 58q-1 7 -7 18q6 -14 6 -34v-42h-23zM1162 586v102h42v-18h-24v-18h20v-22h-20v-23h24v-21h-42zM1194 1259q0 50 54 50q52 0 52 -50q0 -56 -52 -56q-54 0 -54 56zM1219 1254q0 -27 29 -27q30 0 30 27q0 29 -30 29q-29 0 -29 -29zM1226 586 l11 102h25l5 -36q3 -22 3 -32q1 5 6 32l2 36h25l11 -102h-20l-5 46v38l-11 -84h-16l-13 84v-12q-1 -11 -1 -18v-8l-4 -46h-18zM1255 944q0 51 42 51h12v-22q-3 4 -9 4q-22 0 -22 -33t22 -33q7 0 9 6v-21q-3 -3 -9 -3q-45 0 -45 51zM1328 1203v65q0 41 33 41q37 0 37 -26v-4 q0 -21 -21 -25q22 0 22 -17v-34h-26v34q0 6 -16 6v23q15 0 15 7q0 11 -11 11q-10 0 -10 -13v-68h-23zM1333 591v23q10 -8 15 -8q11 0 11 14l-13 14q-13 14 -13 27q0 27 26 27q10 0 16 -4v-16l-14 4q-6 0 -6 -11l12 -18q10 -15 10 -23q0 -36 -26 -36q-8 0 -18 7zM1355 893 v102h38v-18h-21v-22h21v-16h-21v-22h21v-24h-38zM1429 1203v106h26v-106h-26zM1438 893v102h17q44 0 44 -51t-48 -51h-13zM1457 911q22 0 22 33t-22 33v-66zM1479 1237v72h26v-72q0 -14 15 -14q9 0 9 14v72h27v-72q0 -34 -36 -34q-41 0 -41 34zM1581 1203l4 81q1 25 22 25 q14 0 18 -23l8 -49h3l5 54q2 18 22 18q19 0 20 -23l5 -83h-23l-2 83l-16 -68q-4 -15 -11 -15q-13 0 -13 11l-14 70l-6 -81h-22z" />
<glyph unicode="&#xc3;" horiz-adv-x="2361" d="M77 1518v37h2161v-37h-2161zM77 1523h33q286 -522 685 -1160q93 -100 174 -100q92 0 109 131q23 177 23 271q0 144 -46 144h-11q-7 0 -22 -9q-93 -56 -111 -58l244 708v-1894zM1155 -444l1083 1967h-33q-292 -522 -692 -1160q-85 -100 -170 -100q-92 0 -112 131 q-24 157 -24 264q0 151 53 151h8q5 0 126 -67l-239 708v-1894z" />
<glyph unicode="&#xc4;" horiz-adv-x="1311" d="M24 0l450 1405h381l440 -1405h-354l-86 289h-455l-88 -289h-288zM384 1733q0 50 33.5 84.5t83.5 34.5q47 0 82 -35q32 -40 32 -84q0 -50 -34.5 -84.5t-83.5 -34.5q-43 0 -82 37q-31 37 -31 82zM480 547h299l-149 494zM716 1733q0 48 34 83.5t82 35.5q51 0 83 -36t32 -83 q0 -49 -35 -84t-84 -35q-43 0 -82 37q-30 38 -30 82z" />
<glyph unicode="&#xc5;" horiz-adv-x="1311" d="M13 0l450 1405h381l440 -1405h-354l-86 289h-455l-88 -289h-288zM461 1710q0 85 53 142q56 61 138 61q85 0 141.5 -59t56.5 -144q0 -83 -56.5 -142.5t-141.5 -59.5q-80 0 -135.5 61t-55.5 141zM469 547h299l-149 494zM578 1708q0 -75 76 -75q77 0 77 77q0 78 -75 78 q-78 0 -78 -80z" />
<glyph unicode="&#xc6;" horiz-adv-x="1843" d="M21 0l643 1405h1091v-272h-647v-285h518v-264h-518v-311h647v-273h-974v324h-326l-150 -324h-284zM551 559h230v506h-5z" />
<glyph unicode="&#xc7;" horiz-adv-x="1352" d="M64 703q0 356 198 555q68 68 156 110q123 58 277 58q195 0 325 -82q207 -131 244 -461l-344 -23q0 60 -12 113q-43 188 -224 188q-168 0 -225 -210q-15 -56 -23 -117q0 -24 -3 -73t-3 -73q0 -92 11 -170q23 -165 112 -229q57 -41 148 -41q107 0 172 82q56 70 71 182 l320 -20q-42 -363 -359 -477q-100 -36 -221 -36q-224 0 -381 128q-138 113 -200 321q-39 132 -39 275zM469 -328l33 82q85 -47 152 -47q33 3 49 14q22 15 22 43q0 38 -41 60q-35 19 -73 16l-60 -4l60 164h102l-31 -82l33 4q69 0 117 -41q53 -45 53 -109q0 -76 -62 -123 q-56 -42 -135 -42q-114 0 -219 65z" />
<glyph unicode="&#xc8;" horiz-adv-x="1188" d="M127 0v1405h1004v-272h-676v-285h532v-264h-532v-311h676v-273h-1004zM338 1671l62 179l450 -220l-49 -120z" />
<glyph unicode="&#xc9;" horiz-adv-x="1188" d="M127 0v1405h1004v-272h-676v-285h532v-264h-532v-311h676v-273h-1004zM336 1628l447 222l69 -177l-465 -167z" />
<glyph unicode="&#xca;" horiz-adv-x="1188" d="M127 0v1405h1004v-272h-676v-285h532v-264h-532v-311h676v-273h-1004zM205 1544l383 308l395 -308h-217l-178 113l-174 -113h-209z" />
<glyph unicode="&#xcb;" horiz-adv-x="1188" d="M127 0v1405h1004v-272h-676v-285h532v-264h-532v-311h676v-273h-1004zM312 1733q0 51 33 85t83 34q51 0 83 -36t32 -83q0 -49 -35 -84t-84 -35q-43 0 -82 37q-30 36 -30 82zM643 1733q0 48 34.5 83.5t82.5 35.5q50 0 82.5 -35.5t32.5 -83.5q0 -49 -35 -84t-84 -35 q-43 0 -82 37q-31 39 -31 82z" />
<glyph unicode="&#xcc;" horiz-adv-x="615" d="M51 1671l62 179l450 -220l-49 -120zM133 0v1405h328v-1405h-328z" />
<glyph unicode="&#xcd;" horiz-adv-x="615" d="M49 1628l447 222l69 -177l-464 -167zM133 0v1405h328v-1405h-328z" />
<glyph unicode="&#xce;" horiz-adv-x="615" d="M-82 1544l383 308l396 -308h-218l-178 113l-174 -113h-209zM133 0v1405h328v-1405h-328z" />
<glyph unicode="&#xcf;" horiz-adv-x="615" d="M25 1733q0 50 33.5 84.5t83.5 34.5q49 0 81.5 -35.5t32.5 -83.5q0 -49 -35 -84t-84 -35q-48 0 -80 36t-32 83zM133 0v1405h328v-1405h-328zM357 1733q0 50 34.5 84.5t81.5 34.5q51 0 83 -36t32 -83q0 -49 -35 -84t-84 -35q-43 0 -82 37q-30 36 -30 82z" />
<glyph unicode="&#xd0;" horiz-adv-x="1352" d="M62 690q0 169 45 308q84 261 291 366q122 62 274 62q160 0 286 -70q133 -73 203 -211q47 -93 62 -201l-311 -43q-27 260 -248 260q-93 0 -152 -61q-55 -57 -82 -147q-24 -80 -30 -189q-2 -35 -2 -78q0 -200 71.5 -320t208.5 -120q111 0 172.5 66t61.5 178h-267v262h578 v-752h-150l-47 162q-155 -183 -383 -183q-319 0 -477 269q-104 177 -104 442zM272 1807h182q48 -52 152 -71q27 -5 55 -5q115 0 188 76h185q-98 -231 -383 -231q-140 0 -230 53q-95 56 -149 178z" />
<glyph unicode="&#xd1;" horiz-adv-x="1352" d="M127 0v1405h355l469 -825h4v825h254v-1405h-281l-539 944h-8v-944h-254zM307 1696q115 117 240 117q40 0 72 -11l63 -22l58 -25q23 -10 55 -10q57 0 158 86l92 -102q-47 -61 -107 -96q-69 -41 -137 -41q-49 0 -78 10l-69 24q-14 7 -60 23q-35 12 -51 12q-49 0 -110 -46 q-15 -11 -33 -26z" />
<glyph unicode="&#xd2;" horiz-adv-x="1352" d="M68 705q0 78 12 154q13 88 33 147q50 146 139 246q61 69 148 112q124 62 270 62q148 0 250 -49q224 -108 309 -400q39 -136 39 -272q0 -129 -33 -254q-79 -300 -299 -411q-120 -61 -266 -61q-297 0 -455 222q-147 207 -147 504zM412 705l4 -123q20 -141 53 -205 q66 -129 201 -129q80 0 133 41q89 68 111 264q10 88 10 150q0 53 -2 79q-1 22 -8 83q-5 33 -19 89q-11 41 -22 66q-62 137 -203 137q-154 0 -213 -159q-22 -58 -35 -146q-12 -79 -10 -147zM420 1671l62 179l450 -220l-49 -120z" />
<glyph unicode="&#xd3;" horiz-adv-x="1352" d="M68 705q0 78 12 154q13 88 33 147q50 146 139 246q61 69 148 112q124 62 270 62q148 0 250 -49q224 -108 309 -400q39 -136 39 -272q0 -129 -33 -254q-79 -300 -299 -411q-120 -61 -266 -61q-297 0 -455 222q-147 207 -147 504zM412 705l4 -123q20 -141 53 -205 q66 -129 201 -129q80 0 133 41q89 68 111 264q10 88 10 150q0 53 -2 79q-1 22 -8 83q-5 33 -19 89q-11 41 -22 66q-62 137 -203 137q-154 0 -213 -159q-22 -58 -35 -146q-12 -79 -10 -147zM418 1628l447 222l69 -177l-465 -167z" />
<glyph unicode="&#xd4;" horiz-adv-x="1352" d="M68 705q0 78 12 154q13 88 33 147q50 146 139 246q61 69 148 112q124 62 270 62q148 0 250 -49q224 -108 309 -400q39 -136 39 -272q0 -129 -33 -254q-79 -300 -299 -411q-120 -61 -266 -61q-297 0 -455 222q-147 207 -147 504zM287 1544l383 308l395 -308h-217l-178 113 l-174 -113h-209zM412 705l4 -123q20 -141 53 -205q66 -129 201 -129q80 0 133 41q89 68 111 264q10 88 10 150q0 53 -2 79q-1 22 -8 83q-5 33 -19 89q-11 41 -22 66q-62 137 -203 137q-154 0 -213 -159q-22 -58 -35 -146q-12 -79 -10 -147z" />
<glyph unicode="&#xd5;" horiz-adv-x="1352" d="M68 705q0 78 12 154q13 88 33 147q50 146 139 246q61 69 148 112q124 62 270 62q148 0 250 -49q224 -108 309 -400q39 -136 39 -272q0 -129 -33 -254q-79 -300 -299 -411q-120 -61 -266 -61q-297 0 -455 222q-147 207 -147 504zM307 1716q55 58 107 84q66 33 133 33 q45 0 72 -10l63 -23q23 -11 58 -24q27 -10 55 -10q37 0 84 30q25 16 39 27q3 3 35 29l92 -103q-44 -59 -107 -96q-69 -41 -137 -41q-50 0 -78 10l-69 25q-7 4 -60 22q-52 13 -51 13q-38 0 -76 -23q-31 -19 -67 -49zM412 705l4 -123q20 -141 53 -205q66 -129 201 -129 q80 0 133 41q89 68 111 264q10 88 10 150q0 53 -2 79q-1 22 -8 83q-5 33 -19 89q-11 41 -22 66q-62 137 -203 137q-154 0 -213 -159q-22 -58 -35 -146q-12 -79 -10 -147z" />
<glyph unicode="&#xd6;" horiz-adv-x="1352" d="M68 705q0 78 12 154q13 88 33 147q50 146 139 246q61 69 148 112q124 62 270 62q148 0 250 -49q224 -108 309 -400q39 -136 39 -272q0 -129 -33 -254q-79 -300 -299 -411q-120 -61 -266 -61q-297 0 -455 222q-147 207 -147 504zM393 1733q0 50 33.5 84.5t83.5 34.5 q51 0 83 -36t32 -83q0 -49 -35 -84t-84 -35q-43 0 -82 37q-31 39 -31 82zM412 705l4 -123q20 -141 53 -205q66 -129 201 -129q80 0 133 41q89 68 111 264q10 88 10 150q0 53 -2 79q-1 22 -8 83q-5 33 -19 89q-11 41 -22 66q-62 137 -203 137q-154 0 -213 -159 q-22 -58 -35 -146q-12 -79 -10 -147zM725 1733q0 48 34.5 83.5t82.5 35.5q51 0 83 -36t32 -83q0 -49 -35 -84t-84 -35q-43 0 -82 37q-31 37 -31 82z" />
<glyph unicode="&#xd7;" horiz-adv-x="1229" d="M119 271l322 319l-322 322l174 174l322 -322l321 322l174 -174l-319 -322l319 -319l-174 -181l-321 324l-322 -324z" />
<glyph unicode="&#xd8;" horiz-adv-x="1352" d="M68 699q0 139 33 258q87 314 310 416q117 53 269 53q144 0 260 -56l76 162h191l-130 -266q93 -99 144 -258q45 -140 45 -293q0 -133 -35 -266q-81 -308 -310 -415q-116 -55 -267 -55q-138 0 -254 54l-105 -175h-186l155 275q-72 76 -124 193q-46 104 -62 221 q-10 73 -10 152zM412 662q0 -65 6 -109q8 -60 23 -108l366 673q-62 43 -131 43q-95 0 -156 -65q-50 -53 -79 -156q-12 -41 -15 -62q-1 -4 -6 -63q-8 -91 -8 -153zM537 285q56 -39 123 -39q93 0 157 63q50 49 78 152q21 77 21 123q0 22 4 77q3 49 2 77l-4 106q-2 46 -19 104z " />
<glyph unicode="&#xd9;" horiz-adv-x="1352" d="M107 555v850h356l4 -962q9 -73 27 -105q28 -52 92 -76q47 -18 119 -18q51 0 110 16q65 25 93 60q35 55 36 114l2 121v850h283l-2 -981q-2 -114 -45 -203q-60 -123 -213 -190q-119 -52 -287 -52q-100 0 -172 13q-100 18 -164 47q-45 20 -94 62q-105 89 -131 237 q-7 40 -10 90q-4 55 -4 127zM420 1671l62 179l450 -220l-49 -120z" />
<glyph unicode="&#xda;" horiz-adv-x="1352" d="M107 555v850h356l4 -962q9 -73 27 -105q28 -52 92 -76q47 -18 119 -18q51 0 110 16q65 25 93 60q35 55 36 114l2 121v850h283l-2 -981q-2 -114 -45 -203q-60 -123 -213 -190q-119 -52 -287 -52q-100 0 -172 13q-100 18 -164 47q-45 20 -94 62q-105 89 -131 237 q-7 40 -10 90q-4 55 -4 127zM418 1628l447 222l69 -177l-465 -167z" />
<glyph unicode="&#xdb;" horiz-adv-x="1352" d="M107 555v850h356l4 -962q9 -73 27 -105q28 -52 92 -76q47 -18 119 -18q51 0 110 16q65 25 93 60q35 55 36 114l2 121v850h283l-2 -981q-2 -114 -45 -203q-60 -123 -213 -190q-119 -52 -287 -52q-100 0 -172 13q-100 18 -164 47q-45 20 -94 62q-105 89 -131 237 q-7 40 -10 90q-4 55 -4 127zM287 1544l383 308l395 -308h-217l-178 113l-174 -113h-209z" />
<glyph unicode="&#xdc;" horiz-adv-x="1352" d="M107 555v850h356l4 -962q9 -73 27 -105q28 -52 92 -76q47 -18 119 -18q51 0 110 16q65 25 93 60q35 55 36 114l2 121v850h283l-2 -981q-2 -114 -45 -203q-60 -123 -213 -190q-119 -52 -287 -52q-100 0 -172 13q-100 18 -164 47q-45 20 -94 62q-105 89 -131 237 q-7 40 -10 90q-4 55 -4 127zM393 1733q0 50 33.5 84.5t83.5 34.5q51 0 83 -36t32 -83q0 -49 -35 -84t-84 -35q-43 0 -82 37q-31 39 -31 82zM725 1733q0 48 34.5 83.5t82.5 35.5q51 0 83 -36t32 -83q0 -49 -35 -84t-84 -35q-43 0 -82 37q-31 37 -31 82z" />
<glyph unicode="&#xdd;" horiz-adv-x="615" d="M133 0v1405h328v-1405h-328zM183 1723q0 50 34.5 84.5t81.5 34.5q51 0 83 -36t32 -83q0 -49 -35 -84t-84 -35q-43 0 -82 37q-30 36 -30 82z" />
<glyph unicode="&#xde;" horiz-adv-x="1229" d="M6 369l303 70q31 -109 107 -156q69 -43 186 -43q48 0 74 6q41 10 72 27q73 41 73 118q0 47 -32 78q-28 27 -78 45q-37 14 -62 19l-73 16q-137 30 -205 53q-43 14 -95 43q-104 55 -153 146q-43 79 -43 190q0 95 39 183q82 180 277 236q93 26 188 26q100 0 174 -17 q88 -20 152 -57q144 -82 206 -256l-278 -92q-62 166 -242 166q-84 0 -131 -25q-63 -33 -63 -106q0 -95 137 -127l65 -15q177 -41 189 -44q110 -31 178 -75q184 -119 184 -331q0 -218 -174 -353q-86 -67 -214 -96q-89 -19 -193 -19q-156 0 -279 52q-236 100 -289 338z M379 -338l33 82q85 -47 152 -47q33 3 49 14q22 15 22 43q0 38 -41 60q-35 19 -73 16l-60 -4l60 164h102l-31 -82l33 4q69 0 117 -41q53 -45 53 -109q0 -76 -62 -123q-56 -42 -135 -42q-114 0 -219 65z" />
<glyph unicode="&#xdf;" horiz-adv-x="1352" d="M31 684v217h106q0 191 86 312q151 213 482 213q161 0 268 -66q156 -96 156 -242q0 -93 -77 -171t-173 -95l-33 -6l-37 -8q-63 -14 -63 -29q3 -9 24 -18l31 -13l113 -36q102 -33 192 -97q164 -118 164 -286q0 -161 -137 -273q-68 -56 -164 -82q-91 -25 -182 -25 q-124 0 -242 40l80 194q44 -13 92 -24t96 -11q69 0 115 29q55 35 55 96q0 64 -67 103q-62 28 -187 86l-84 39q-39 24 -67 49q-66 60 -66 153q0 59 33 117q29 50 80 98l65 17l64 26q67 40 67 101q0 58 -55 93q-48 30 -110 30q-68 0 -119.5 -39.5t-69.5 -104.5q-7 -25 -8 -61 l-2 -115v-1012h-320v801h-106z" />
<glyph unicode="&#xe0;" d="M62 275q0 221 233 309q77 29 208 46q145 19 204 19v25l-2 72q-6 39 -25 65q-43 49 -123 49q-81 0 -127 -36q-53 -42 -53 -115l-285 26q30 196 213 275q43 18 116 34.5t167 16.5q97 0 174 -20q216 -56 244 -222q8 -48 8 -178l4 -563q8 -53 16 -78h-299q-14 64 -14 162 q-69 -96 -139 -137q-79 -46 -193 -46q-107 0 -184 42q-84 46 -119 125q-24 54 -24 129zM297 1307l62 178l450 -219l-49 -121zM381 307q0 -66 35 -100q38 -37 98 -37q95 0 152 86q35 54 37 97l4 104v41l-62 -10l-51 -6q-81 -19 -117 -37q-96 -49 -96 -138z" />
<glyph unicode="&#xe1;" d="M62 275q0 221 233 309q77 29 208 46q145 19 204 19v25l-2 72q-6 39 -25 65q-43 49 -123 49q-81 0 -127 -36q-53 -42 -53 -115l-285 26q30 196 213 275q43 18 116 34.5t167 16.5q97 0 174 -20q216 -56 244 -222q8 -48 8 -178l4 -563q8 -53 16 -78h-299q-14 64 -14 162 q-69 -96 -139 -137q-79 -46 -193 -46q-107 0 -184 42q-84 46 -119 125q-24 54 -24 129zM295 1264l447 221l69 -176l-465 -168zM381 307q0 -66 35 -100q38 -37 98 -37q95 0 152 86q35 54 37 97l4 104v41l-62 -10l-51 -6q-81 -19 -117 -37q-96 -49 -96 -138z" />
<glyph unicode="&#xe2;" d="M62 275q0 221 233 309q77 29 208 46q145 19 204 19v25l-2 72q-6 39 -25 65q-43 49 -123 49q-81 0 -127 -36q-53 -42 -53 -115l-285 26q30 196 213 275q43 18 116 34.5t167 16.5q97 0 174 -20q216 -56 244 -222q8 -48 8 -178l4 -563q8 -53 16 -78h-299q-14 64 -14 162 q-69 -96 -139 -137q-79 -46 -193 -46q-107 0 -184 42q-84 46 -119 125q-24 54 -24 129zM164 1180l383 307l395 -307h-217l-178 113l-174 -113h-209zM381 307q0 -66 35 -100q38 -37 98 -37q95 0 152 86q35 54 37 97l4 104v41l-62 -10l-51 -6q-81 -19 -117 -37 q-96 -49 -96 -138z" />
<glyph unicode="&#xe3;" d="M62 275q0 221 233 309q77 29 208 46q145 19 204 19v25l-2 72q-6 39 -25 65q-43 49 -123 49q-81 0 -127 -36q-53 -42 -53 -115l-285 26q30 196 213 275q43 18 116 34.5t167 16.5q97 0 174 -20q216 -56 244 -222q8 -48 8 -178l4 -563q8 -53 16 -78h-299q-14 64 -14 162 q-69 -96 -139 -137q-79 -46 -193 -46q-107 0 -184 42q-84 46 -119 125q-24 54 -24 129zM185 1352q55 58 106 84q64 33 133 33q40 0 72 -11l63 -22q33 -16 58 -25q29 -10 55 -10q57 0 158 86l92 -102q-103 -138 -244 -138q-34 0 -78 11l-69 24q-14 7 -60 23q-35 12 -51 12 q-49 0 -110 -46q-15 -11 -33 -26zM381 307q0 -66 35 -100q38 -37 98 -37q95 0 152 86q35 54 37 97l4 104v41l-62 -10l-51 -6q-81 -19 -117 -37q-96 -49 -96 -138z" />
<glyph unicode="&#xe4;" d="M62 275q0 221 233 309q77 29 208 46q145 19 204 19v25l-2 72q-6 39 -25 65q-43 49 -123 49q-81 0 -127 -36q-53 -42 -53 -115l-285 26q30 196 213 275q43 18 116 34.5t167 16.5q97 0 174 -20q216 -56 244 -222q8 -48 8 -178l4 -563q8 -53 16 -78h-299q-14 64 -14 162 q-69 -96 -139 -137q-79 -46 -193 -46q-107 0 -184 42q-84 46 -119 125q-24 54 -24 129zM271 1368q0 51 33 85t83 34t82.5 -35.5t32.5 -83.5q0 -49 -34.5 -83.5t-84.5 -34.5q-44 0 -82 36q-30 36 -30 82zM381 307q0 -66 35 -100q38 -37 98 -37q95 0 152 86q35 54 37 97l4 104 v41l-62 -10l-51 -6q-81 -19 -117 -37q-96 -49 -96 -138zM602 1368q0 49 35 84t82 35q49 0 82 -35t33 -84q0 -50 -34.5 -84t-84.5 -34q-44 0 -82 36q-31 39 -31 82z" />
<glyph unicode="&#xe5;" d="M62 275q0 221 233 309q77 29 208 46q145 19 204 19v25l-2 72q-6 39 -25 65q-43 49 -123 49q-81 0 -127 -36q-53 -42 -53 -115l-285 26q30 196 213 275q43 18 116 34.5t167 16.5q97 0 174 -20q216 -56 244 -222q8 -48 8 -178l4 -563q8 -53 16 -78h-299q-14 64 -14 162 q-69 -96 -139 -137q-79 -46 -193 -46q-107 0 -184 42q-84 46 -119 125q-24 54 -24 129zM359 1387q0 82 54.5 142t135.5 60q85 0 142 -58.5t57 -143.5t-57.5 -144t-141.5 -59q-81 0 -136 62q-54 59 -54 141zM381 307q0 -66 35 -100q38 -37 98 -37q95 0 152 86q35 54 37 97 l4 104v41l-62 -10l-51 -6q-81 -19 -117 -37q-96 -49 -96 -138zM475 1385q0 -76 76 -76q78 0 78 78q0 32 -23 55t-53 23q-78 0 -78 -80z" />
<glyph unicode="&#xe6;" horiz-adv-x="1680" d="M62 273q0 105 47 174q45 66 121 106q103 55 267 77q139 19 202 19v109q-6 39 -26 60t-58 34q-30 10 -68 10q-157 0 -174 -157l-276 24q30 248 303 314q75 18 157 18q94 0 164 -20q79 -23 148 -76q124 96 286 96q111 0 209 -49q171 -85 225 -283q8 -29 21 -80q5 -29 6 -75 l2 -105h-643q0 -81 4 -100q12 -55 29 -86q47 -84 160 -84q152 0 180 160l270 -23q-39 -171 -160.5 -264t-298.5 -93q-122 0 -221 46q-105 49 -174 139q-69 -88 -164 -135q-102 -50 -209 -50q-147 0 -231 72q-98 84 -98 222zM375 307q0 -63 38 -99t95 -36q118 0 171 122 q10 24 16 54l4 107v43q-55 0 -115 -12q-72 -14 -115.5 -38.5t-60.5 -45.5q-33 -40 -33 -95zM977 649h359l-13 82q-7 24 -26 68q-41 66 -133 66q-86 0 -138 -66q-38 -58 -49 -150z" />
<glyph unicode="&#xe7;" d="M58 510q0 188 77 316q81 134 224 194q99 41 219 41q132 0 238 -59q113 -61 171 -174q45 -87 45 -166l-286 -17q0 77 -39 129q-44 58 -119 58q-86 0 -131 -60q-55 -73 -55 -237q0 -101 10 -154q17 -89 63 -123q40 -30 101 -30q77 0 121 53q39 47 49 127l286 -17 q-31 -292 -294 -383q-84 -29 -179 -29q-166 0 -287 81q-124 83 -180 237q-34 94 -34 213zM346 -328l33 82q87 -48 152 -47q31 1 49 14q22 16 22 43q0 39 -41 60q-37 18 -73 16l-60 -4l60 164h102l-31 -82l33 4q69 0 117 -41q53 -45 53 -109q0 -76 -62 -123q-56 -42 -135 -42 q-114 0 -219 65z" />
<glyph unicode="&#xe8;" d="M51 506q0 176 74 311q134 244 432 244q114 0 213 -47q105 -50 168 -137q47 -65 72 -144q17 -53 23 -81t8 -76l4 -107h-668l-2 -51q-4 -93 50.5 -158t150.5 -65q74 0 127 45q57 48 57 119l279 -21q-3 -29 -25 -76q-54 -118 -164 -196q-77 -55 -164 -74q-58 -13 -121 -13 q-169 0 -299 87q-125 84 -178 227q-37 99 -37 213zM297 1307l62 178l450 -219l-49 -121zM375 647h369q0 35 -13 82.5t-28 69.5q-44 66 -133 66q-175 0 -195 -218z" />
<glyph unicode="&#xe9;" d="M51 506q0 176 74 311q134 244 432 244q114 0 213 -47q105 -50 168 -137q47 -65 72 -144q17 -53 23 -81t8 -76l4 -107h-668l-2 -51q-4 -93 50.5 -158t150.5 -65q74 0 127 45q57 48 57 119l279 -21q-3 -29 -25 -76q-54 -118 -164 -196q-77 -55 -164 -74q-58 -13 -121 -13 q-169 0 -299 87q-125 84 -178 227q-37 99 -37 213zM295 1264l447 221l69 -176l-465 -168zM375 647h369q0 35 -13 82.5t-28 69.5q-44 66 -133 66q-175 0 -195 -218z" />
<glyph unicode="&#xea;" d="M51 506q0 176 74 311q134 244 432 244q114 0 213 -47q105 -50 168 -137q47 -65 72 -144q17 -53 23 -81t8 -76l4 -107h-668l-2 -51q-4 -93 50.5 -158t150.5 -65q74 0 127 45q57 48 57 119l279 -21q-3 -29 -25 -76q-54 -118 -164 -196q-77 -55 -164 -74q-58 -13 -121 -13 q-169 0 -299 87q-125 84 -178 227q-37 99 -37 213zM164 1180l383 307l395 -307h-217l-178 113l-174 -113h-209zM375 647h369q0 35 -13 82.5t-28 69.5q-44 66 -133 66q-175 0 -195 -218z" />
<glyph unicode="&#xeb;" d="M51 506q0 176 74 311q134 244 432 244q114 0 213 -47q105 -50 168 -137q47 -65 72 -144q17 -53 23 -81t8 -76l4 -107h-668l-2 -51q-4 -93 50.5 -158t150.5 -65q74 0 127 45q57 48 57 119l279 -21q-3 -29 -25 -76q-54 -118 -164 -196q-77 -55 -164 -74q-58 -13 -121 -13 q-169 0 -299 87q-125 84 -178 227q-37 99 -37 213zM271 1368q0 51 33 85t83 34t82.5 -35.5t32.5 -83.5q0 -49 -34.5 -83.5t-84.5 -34.5q-44 0 -82 36q-30 36 -30 82zM375 647h369q0 35 -13 82.5t-28 69.5q-44 66 -133 66q-175 0 -195 -218zM602 1368q0 49 35 84t82 35 q49 0 82 -35t33 -84q0 -50 -34.5 -84t-84.5 -34q-44 0 -82 36q-31 39 -31 82z" />
<glyph unicode="&#xec;" horiz-adv-x="533" d="M10 1307l62 178l450 -219l-49 -121zM113 0v1041h301v-1041h-301z" />
<glyph unicode="&#xed;" horiz-adv-x="533" d="M8 1264l447 221l70 -176l-465 -168zM113 0v1041h301v-1041h-301z" />
<glyph unicode="&#xee;" horiz-adv-x="533" d="M-123 1180l383 307l396 -307h-217l-179 113l-174 -113h-209zM113 0v1041h301v-1041h-301z" />
<glyph unicode="&#xef;" horiz-adv-x="533" d="M-17 1368q0 49 34 84t84 35t82 -35t32 -84q0 -50 -34 -84t-84 -34q-44 0 -82 36q-32 38 -32 82zM113 0v1041h301v-1041h-301zM316 1368q0 51 35 85t81 34q50 0 82.5 -35.5t32.5 -83.5q0 -50 -34.5 -84t-84.5 -34q-44 0 -82 36q-30 36 -30 82z" />
<glyph unicode="&#xf0;" horiz-adv-x="1157" d="M10 -125q0 73 56 127q46 45 125 62q-65 32 -97 73q-36 47 -36 113q0 69 38.5 118t94.5 77l75 37q-94 40 -135 96q-49 68 -49 157q0 191 199 275q121 51 278 51q138 0 277 -45q15 117 67 160t168 43l84 -8v-195q-31 10 -80 10q-47 0 -80 -21q-40 -25 -40 -69 q47 -52 61 -92q21 -45 21 -111q0 -97 -56 -168q-48 -62 -137 -100q-137 -60 -270 -49l-174 14q-52 -31 -52 -75q0 -61 60 -80q34 -11 108 -15q59 -3 115 -6l131 -6l103 -10q46 -5 100 -23q184 -63 184 -244q0 -189 -219 -283q-40 -17 -90 -28q-83 -18 -189 -24 q-54 -3 -104 -3q-140 0 -276 21q-58 9 -97 24q-65 25 -102 60q-62 58 -62 137zM142 1457h182q48 -52 152 -71q27 -5 55 -5q115 0 188 76h185q-98 -231 -383 -231q-140 0 -230 53q-95 56 -149 178zM279 -78q0 -75 127 -96q14 -2 61 -4q68 -5 113 -5q23 3 86 3q47 0 105 12 q91 19 91 86q-5 51 -75 65l-35 7l-408 16q-65 -27 -65 -84zM389 740q0 -78 46.5 -118t119.5 -40q77 0 128.5 40.5t51.5 119.5q0 73 -55 116q-48 37 -125 37q-73 0 -119.5 -41.5t-46.5 -113.5z" />
<glyph unicode="&#xf1;" d="M103 0v1041h284v-176h4q96 196 299 196q76 0 142 -27q110 -45 147 -155q5 -14 13 -39q2 -9 4 -39q8 -68 8 -158v-643h-301v623q0 42 -4 65q-23 133 -134 133q-85 0 -126 -77q-35 -65 -35 -185v-559h-301zM185 1352q55 58 106 84q64 33 133 33q40 0 72 -11l63 -22 q33 -16 58 -25q29 -10 55 -10q57 0 158 86l92 -102q-103 -138 -244 -138q-34 0 -78 11l-69 24q-14 7 -60 23q-35 12 -51 12q-49 0 -110 -46q-15 -11 -33 -26z" />
<glyph unicode="&#xf2;" d="M56 522q0 174 71 304q129 235 422 235q171 0 293.5 -86.5t175.5 -247.5q33 -101 33 -215q0 -169 -78 -299q-140 -234 -424 -234q-167 0 -288 86t-173 244q-32 96 -32 213zM297 1307l62 178l450 -219l-49 -121zM379 553q-3 -79 12 -192l17 -68q44 -113 141 -113 q67 0 109 43q35 36 51 101q18 71 18 186q0 65 -6 131q-8 78 -28 131q-17 44 -52.5 67t-89.5 23q-68 0 -104 -38q-32 -34 -49 -97q-7 -24 -15 -75z" />
<glyph unicode="&#xf3;" d="M56 522q0 174 71 304q129 235 422 235q171 0 293.5 -86.5t175.5 -247.5q33 -101 33 -215q0 -169 -78 -299q-140 -234 -424 -234q-167 0 -288 86t-173 244q-32 96 -32 213zM295 1264l447 221l69 -176l-465 -168zM379 553q-3 -79 12 -192l17 -68q44 -113 141 -113 q67 0 109 43q35 36 51 101q18 71 18 186q0 65 -6 131q-8 78 -28 131q-17 44 -52.5 67t-89.5 23q-68 0 -104 -38q-32 -34 -49 -97q-7 -24 -15 -75z" />
<glyph unicode="&#xf4;" d="M56 522q0 174 71 304q129 235 422 235q171 0 293.5 -86.5t175.5 -247.5q33 -101 33 -215q0 -169 -78 -299q-140 -234 -424 -234q-167 0 -288 86t-173 244q-32 96 -32 213zM164 1180l383 307l395 -307h-217l-178 113l-174 -113h-209zM379 553q-3 -79 12 -192l17 -68 q44 -113 141 -113q67 0 109 43q35 36 51 101q18 71 18 186q0 65 -6 131q-8 78 -28 131q-17 44 -52.5 67t-89.5 23q-68 0 -104 -38q-32 -34 -49 -97q-7 -24 -15 -75z" />
<glyph unicode="&#xf5;" d="M56 522q0 174 71 304q129 235 422 235q171 0 293.5 -86.5t175.5 -247.5q33 -101 33 -215q0 -169 -78 -299q-140 -234 -424 -234q-167 0 -288 86t-173 244q-32 96 -32 213zM185 1352q55 58 106 84q64 33 133 33q40 0 72 -11l63 -22q33 -16 58 -25q29 -10 55 -10 q57 0 158 86l92 -102q-103 -138 -244 -138q-34 0 -78 11l-69 24q-14 7 -60 23q-35 12 -51 12q-49 0 -110 -46q-15 -11 -33 -26zM379 553q-3 -79 12 -192l17 -68q44 -113 141 -113q67 0 109 43q35 36 51 101q18 71 18 186q0 65 -6 131q-8 78 -28 131q-17 44 -52.5 67 t-89.5 23q-68 0 -104 -38q-32 -34 -49 -97q-7 -24 -15 -75z" />
<glyph unicode="&#xf6;" d="M56 522q0 174 71 304q129 235 422 235q171 0 293.5 -86.5t175.5 -247.5q33 -101 33 -215q0 -169 -78 -299q-140 -234 -424 -234q-167 0 -288 86t-173 244q-32 96 -32 213zM271 1368q0 51 33 85t83 34t82.5 -35.5t32.5 -83.5q0 -49 -34.5 -83.5t-84.5 -34.5q-44 0 -82 36 q-30 36 -30 82zM379 553q-3 -79 12 -192l17 -68q44 -113 141 -113q67 0 109 43q35 36 51 101q18 71 18 186q0 65 -6 131q-8 78 -28 131q-17 44 -52.5 67t-89.5 23q-68 0 -104 -38q-32 -34 -49 -97q-7 -24 -15 -75zM602 1368q0 49 35 84t82 35q49 0 82 -35t33 -84 q0 -50 -34.5 -84t-84.5 -34q-44 0 -82 36q-31 39 -31 82z" />
<glyph unicode="&#xf7;" horiz-adv-x="1229" d="M119 467v246h991v-246h-991zM492 94v246h246v-246h-246zM492 840v246h246v-246h-246z" />
<glyph unicode="&#xf8;" d="M58 527q0 222 125 374q131 160 382 160q104 0 193 -35l74 129h157l-104 -207q166 -172 166 -434q0 -173 -76 -301q-78 -132 -215 -192q-96 -42 -211 -42q-34 0 -98 8q-67 18 -92 30l-90 -142h-166l127 224q-172 151 -172 428zM381 541l15 -166l258 451q-50 36 -103 36 q-66 0 -108 -41q-45 -45 -60 -178zM467 221q36 -36 94 -36q118 0 152 147q11 45 12 82q6 70 4 100l-12 148z" />
<glyph unicode="&#xf9;" d="M111 385v656h301l2 -717q6 -36 14 -51q28 -52 99 -52q106 0 151 101q17 39 17 78v641h301v-1041h-279v178h-4q-40 -100 -115.5 -149.5t-181.5 -49.5q-88 0 -143 23q-139 58 -158 236q-4 37 -4 147zM297 1307l62 178l450 -219l-49 -121z" />
<glyph unicode="&#xfa;" d="M111 385v656h301l2 -717q6 -36 14 -51q28 -52 99 -52q106 0 151 101q17 39 17 78v641h301v-1041h-279v178h-4q-40 -100 -115.5 -149.5t-181.5 -49.5q-88 0 -143 23q-139 58 -158 236q-4 37 -4 147zM295 1264l447 221l69 -176l-465 -168z" />
<glyph unicode="&#xfb;" d="M111 385v656h301l2 -717q6 -36 14 -51q28 -52 99 -52q106 0 151 101q17 39 17 78v641h301v-1041h-279v178h-4q-40 -100 -115.5 -149.5t-181.5 -49.5q-88 0 -143 23q-139 58 -158 236q-4 37 -4 147zM164 1180l383 307l395 -307h-217l-178 113l-174 -113h-209z" />
<glyph unicode="&#xfc;" d="M111 385v656h301l2 -717q6 -36 14 -51q28 -52 99 -52q106 0 151 101q17 39 17 78v641h301v-1041h-279v178h-4q-40 -100 -115.5 -149.5t-181.5 -49.5q-88 0 -143 23q-139 58 -158 236q-4 37 -4 147zM271 1368q0 51 33 85t83 34t82.5 -35.5t32.5 -83.5q0 -49 -34.5 -83.5 t-84.5 -34.5q-44 0 -82 36q-30 36 -30 82zM602 1368q0 49 35 84t82 35q49 0 82 -35t33 -84q0 -50 -34.5 -84t-84.5 -34q-44 0 -82 36q-31 39 -31 82z" />
<glyph unicode="&#xfd;" horiz-adv-x="533" d="M113 0v1041h301v-1041h-301z" />
<glyph unicode="&#xfe;" horiz-adv-x="1024" d="M21 287l260 37q15 -74 86 -111q65 -34 143 -28l53 4q49 11 60 16q69 30 69 78q0 36 -22 57q-18 18 -53 25q-29 6 -41 6l-158 25q-87 14 -152 36q-92 31 -148 108t-56 173q0 138 82 223q74 76 200 107q74 18 162 18q307 0 410 -272l-224 -60q-19 72 -71 106 q-61 39 -131 34l-51 -4q-34 -8 -50 -15q-55 -24 -55 -74q0 -38 35 -61q32 -21 90 -29q150 -21 256 -43l74 -24q170 -82 170 -285q0 -169 -140 -268q-66 -47 -153 -68q-77 -19 -170 -19q-132 0 -232 36q-194 70 -243 272zM276 -348l33 82q87 -48 152 -47q31 1 49 14 q22 16 22 43q0 40 -41 60q-37 18 -73 16l-60 -4l60 164h102l-31 -82l33 4q69 0 117 -41q53 -45 53 -109q0 -76 -62 -123q-56 -42 -135 -42q-114 0 -219 65z" />
<glyph unicode="&#xff;" horiz-adv-x="983" d="M25 1041h325l199 -619l191 619h225l-318 -975q-29 -89 -88 -240q-54 -112 -147 -156q-70 -33 -178 -33l-148 13v235l152 -14q78 0 110 26q37 30 56 103zM209 1368q0 50 33.5 84.5t83.5 34.5t82.5 -35.5t32.5 -83.5q0 -50 -34.5 -84t-84.5 -34q-44 0 -82 36q-31 37 -31 82 zM541 1368q0 48 34.5 83.5t82.5 35.5q50 0 82 -35t32 -84q0 -50 -34 -84t-84 -34q-44 0 -82 36q-31 37 -31 82z" />
<glyph unicode="&#x152;" horiz-adv-x="1966" d="M68 705q0 78 12 154q13 88 33 147q50 146 139 246q61 69 148 112q124 62 270 62q89 0 188 -21h998v-272h-662v-285h529v-264h-529v-311h662v-273h-998q-90 -21 -188 -21q-297 0 -455 222q-147 207 -147 504zM412 705l4 -123q20 -141 53 -205q66 -129 201 -129 q134 0 197 109v698q-66 102 -197 102q-154 0 -213 -159q-22 -58 -35 -146q-12 -79 -10 -147z" />
<glyph unicode="&#x153;" horiz-adv-x="1762" d="M64 525q0 166 71 294q77 139 222 201q96 41 215 41q88 0 172 -27t153 -81q79 54 150 79q82 29 168 29q55 0 105 -10q59 -13 104 -33q107 -47 170 -127q46 -58 73 -147q26 -84 27 -164l2 -111h-662q0 -64 7 -98q10 -51 28 -86q53 -86 160 -86q81 0 130 42t58 118l279 -23 q-25 -107 -77 -178q-80 -110 -223 -155q-76 -24 -163 -24q-108 0 -178 23q-83 27 -158 82q-144 -105 -332 -105q-176 0 -301 93q-200 148 -200 453zM387 508l2 -78q1 -37 13 -84q43 -168 172 -168q65 0 108 45q38 40 53 107q12 52 13 84l4 106q6 146 -35 242q-17 39 -43 62 q-40 34 -102 34q-72 0 -111.5 -43.5t-56.5 -109.5q-11 -44 -13 -88zM1034 649h371l-4 36q-4 26 -10 48q-13 45 -29 68q-47 66 -139 66q-85 0 -137 -68t-52 -150z" />
<glyph unicode="&#x178;" horiz-adv-x="1229" d="M8 1405h381l271 -534l266 534h295l-440 -813v-592h-328v592zM332 1733q0 50 33.5 84.5t83.5 34.5q47 0 82 -35q32 -40 32 -84q0 -50 -34.5 -84.5t-83.5 -34.5q-43 0 -82 37q-31 37 -31 82zM664 1733q0 48 34.5 83.5t82.5 35.5q50 0 82 -36t32 -83q0 -49 -35 -84t-84 -35 q-48 0 -80 36t-32 83z" />
<glyph unicode="&#x2c6;" horiz-adv-x="1024" d="M123 1180l383 307l395 -307h-217l-178 113l-174 -113h-209z" />
<glyph unicode="&#x2dc;" horiz-adv-x="1024" d="M144 1352q55 58 106 84q65 33 133 33q40 0 72 -11l63 -22q33 -16 58 -25q29 -10 55 -10q65 0 158 86l92 -102q-103 -138 -244 -138q-34 0 -78 11l-69 24q-14 7 -60 23q-35 12 -51 12q-49 0 -110 -46q-15 -11 -33 -26z" />
<glyph unicode="&#x2000;" horiz-adv-x="956" />
<glyph unicode="&#x2001;" horiz-adv-x="1913" />
<glyph unicode="&#x2002;" horiz-adv-x="956" />
<glyph unicode="&#x2003;" horiz-adv-x="1913" />
<glyph unicode="&#x2004;" horiz-adv-x="637" />
<glyph unicode="&#x2005;" horiz-adv-x="478" />
<glyph unicode="&#x2006;" horiz-adv-x="318" />
<glyph unicode="&#x2007;" horiz-adv-x="318" />
<glyph unicode="&#x2008;" horiz-adv-x="239" />
<glyph unicode="&#x2009;" horiz-adv-x="382" />
<glyph unicode="&#x200a;" horiz-adv-x="106" />
<glyph unicode="&#x2010;" horiz-adv-x="492" d="M0 414v225h479v-225h-479z" />
<glyph unicode="&#x2011;" horiz-adv-x="492" d="M0 414v225h479v-225h-479z" />
<glyph unicode="&#x2012;" horiz-adv-x="492" d="M0 414v225h479v-225h-479z" />
<glyph unicode="&#x2013;" horiz-adv-x="1024" d="M0 414v225h1024v-225h-1024z" />
<glyph unicode="&#x2014;" horiz-adv-x="2048" d="M0 414v225h2048v-225h-2048z" />
<glyph unicode="&#x2018;" horiz-adv-x="615" d="M168 832v258l185 315h114l-143 -278h143v-295h-299z" />
<glyph unicode="&#x2019;" horiz-adv-x="615" d="M168 832l144 280h-144v293h299v-256l-184 -317h-115z" />
<glyph unicode="&#x201a;" horiz-adv-x="615" d="M168 0v289h279v-289l-170 -285h-109l146 285h-146z" />
<glyph unicode="&#x201c;" horiz-adv-x="983" d="M142 832v258l184 315h115l-144 -278h144v-295h-299zM543 832v258l184 315h115l-143 -278h143v-295h-299z" />
<glyph unicode="&#x201d;" horiz-adv-x="983" d="M142 832l143 280h-143v293h299v-256l-185 -317h-114zM543 832l143 280h-143v293h299v-256l-184 -317h-115z" />
<glyph unicode="&#x201e;" horiz-adv-x="983" d="M150 0v289h278v-289l-170 -285h-108l145 285h-145zM551 0v289h283v-289l-174 -285h-109l139 285h-139z" />
<glyph unicode="&#x2022;" horiz-adv-x="1229" d="M264 703q0 108 57 196t156 129q64 27 138 27q108 0 196 -59q83 -56 127 -156q29 -66 29 -137q0 -110 -59 -197t-156 -127q-63 -26 -137 -26q-108 0 -196 58.5t-128 153.5q-27 64 -27 138z" />
<glyph unicode="&#x2026;" horiz-adv-x="2048" d="M180 0v318h322v-318h-322zM862 0v318h322v-318h-322zM1544 0v318h322v-318h-322z" />
<glyph unicode="&#x202f;" horiz-adv-x="382" />
<glyph unicode="&#x2039;" horiz-adv-x="533" d="M125 590l176 301h105l-105 -301l105 -295h-105z" />
<glyph unicode="&#x203a;" horiz-adv-x="533" d="M125 295l105 295l-105 301h105l176 -301l-176 -295h-105z" />
<glyph unicode="&#x205f;" horiz-adv-x="478" />
<glyph unicode="&#x2122;" horiz-adv-x="2048" d="M152 1245v160h702v-160h-252v-667h-198v667h-252zM942 578v827h291l187 -489l186 489h291v-827h-181v667h-4l-239 -667h-107l-239 667h-4v-667h-181z" />
<glyph unicode="&#xe000;" horiz-adv-x="1040" d="M0 1040h1040v-1040h-1040v1040z" />
<glyph unicode="&#xfb01;" horiz-adv-x="1148" d="M728 0v1041h301v-1041h-301zM728 1135v291h301v-291h-301zM21 781v233h121q0 100 4 143q12 124 101 196.5t267 72.5l140 -13v-231l-103 6h-13q-68 0 -86 -50q-6 -15 -7 -40l-2 -61v-23h184v-233h-184v-781h-301v781h-121z" />
<glyph unicode="&#xfb02;" horiz-adv-x="1148" d="M728 0v1405h301v-1405h-301zM21 781v233h121q0 100 4 143q12 124 101 196.5t267 72.5l140 -13v-231l-103 6h-13q-68 0 -86 -50q-6 -15 -7 -40l-2 -61v-23h184v-233h-184v-781h-301v781h-121z" />
<glyph unicode="&#xfb03;" horiz-adv-x="1763" d="M1343 0v1041h301v-1041h-301zM1343 1135v291h301v-291h-301zM636 781v233h121q0 100 4 143q12 124 101 196.5t267 72.5l140 -13v-231l-103 6h-13q-68 0 -86 -50q-6 -15 -7 -40l-2 -61v-23h184v-233h-184v-781h-301v781h-121zM21 781v233h121q0 100 4 143 q12 124 101 196.5t267 72.5l140 -13v-231l-103 6h-13q-68 0 -86 -50q-6 -15 -7 -40l-2 -61v-23h184v-233h-184v-781h-301v781h-121z" />
<glyph unicode="&#xfb04;" horiz-adv-x="1763" d="M1343 0v1405h301v-1405h-301zM636 781v233h121q0 100 4 143q12 124 101 196.5t267 72.5l140 -13v-231l-103 6h-13q-68 0 -86 -50q-6 -15 -7 -40l-2 -61v-23h184v-233h-184v-781h-301v781h-121zM21 781v233h121q0 100 4 143q12 124 101 196.5t267 72.5l140 -13v-231 l-103 6h-13q-68 0 -86 -50q-6 -15 -7 -40l-2 -61v-23h184v-233h-184v-781h-301v781h-121z" />
</font>
</defs>
</svg>
